<?xml version="1.0" encoding="utf-8"?>
<!-- Generator: Adobe Illustrator 16.2.1, SVG Export Plug-In . SVG Version: 6.00 Build 0)  -->
<!DOCTYPE svg PUBLIC "-//W3C//DTD SVG 1.1//EN" "http://www.w3.org/Graphics/SVG/1.1/DTD/svg11.dtd">
<svg version="1.1" id="Layer_1" xmlns:ev="http://www.w3.org/2001/xml-events"
	 xmlns="http://www.w3.org/2000/svg" xmlns:xlink="http://www.w3.org/1999/xlink" x="0px" y="0px" width="360px" height="180px"
	 viewBox="0 0 360 180" enable-background="new 0 0 360 180" xml:space="preserve">
<g id="dummy">
</g>
<g id="GB14">
	<path fill="#E5E5E5" d="M98.63,70.651l0.033,0.019l0.04-0.011l0.012-0.022l0.155,0.016l0.023,0.042l-0.118,0.001l-0.052,0.027
		l-0.027,0.005l-0.101-0.006l-0.014-0.097l0.028-0.01L98.63,70.651z M100.021,70.292l-0.01,0.005l-0.032-0.004l-0.073,0.041
		l-0.032-0.002l0.01-0.015l0.015-0.013l0.017-0.01l0.016-0.004l0.052-0.008l0.024-0.001l0.017,0.009L100.021,70.292z
		 M100.177,70.288l-0.047,0.015l-0.036-0.006l0.082-0.041l0.021-0.014l0.018-0.008h0.019l0.024,0.009v0.006L100.177,70.288z"/>
</g>
<g id="US1">
	<path fill="#E5E5E5" d="M24.419,70.988l-0.045,0.048l-0.055-0.004l-0.2-0.103l-0.025-0.055l0.015-0.257l-0.075-0.208l-0.083-0.159
		l0.061-0.082l0.079-0.063l0.089-0.119l-0.073-0.153l0.019-0.093l0.042-0.016l0.21,0.113l0.423,0.169l0.113,0.118l0.02,0.128
		l0.077,0.016l0.036,0.087l0.112,0.077l0.037,0.044l-0.046,0.07l-0.203,0.135L24.69,70.74l-0.225,0.151L24.419,70.988z
		 M23.15,69.227l-0.059,0.029l-0.064-0.014l-0.015-0.068l-0.063-0.086l0.109-0.018l0.061,0.025l0.033,0.027l0.039,0.047
		L23.15,69.227z M23.513,69.067l0.026,0.018l0.107-0.026l0.076-0.01l0.13,0.066l0.044,0.045l0.085,0.048l0.029,0.035l-0.024,0.042
		l-0.093,0.07l-0.128,0.016l-0.075,0.03l-0.099-0.006l-0.029-0.013l-0.011-0.088l-0.031-0.095l-0.064,0.011l-0.071-0.032
		l-0.075-0.079l-0.008-0.048l0.041-0.076l0.072-0.009l0.053,0.041L23.513,69.067z M22.786,68.785l0.212,0.027l0.05-0.012
		l0.035,0.023l0.175,0.013l0.03,0.009l-0.036,0.051l-0.112,0.048l-0.161-0.042l-0.269-0.015l0.011-0.039l0.025-0.029l0.004-0.049
		L22.786,68.785z M22.201,68.543l0.034,0.006l0.044-0.007l0.015,0.08l0.052,0.044l0.019,0.026l-0.056,0.028l-0.108,0.011
		l-0.05-0.022l-0.053-0.05l-0.056,0.014l-0.01-0.04l-0.01-0.011l-0.039,0.01l0.036,0.052l-0.098,0.004l-0.031-0.007l-0.028-0.058
		l-0.101-0.112v-0.044l-0.034-0.052l0.15-0.015l0.103-0.092l0.058-0.009l0.111,0.148l-0.003,0.041l0.024,0.041L22.201,68.543z
		 M19.82,68.159l-0.02,0.044l-0.035-0.007l-0.008-0.039l0.022-0.054l0.057-0.047l0.063-0.071l0.052,0.01l-0.028,0.047l-0.003,0.051
		l-0.073,0.028L19.82,68.159z M20.627,68.068l-0.088,0.056L20.488,68.1l-0.097-0.01l-0.037-0.042l-0.102-0.038l-0.041-0.052
		l0.062-0.098l0.148-0.083l0.227,0.003l0.047,0.066l0.004,0.049l-0.029,0.054l-0.014,0.077L20.627,68.068z M98.216,65.455
		l-0.025,0.003l-0.002-0.016l0.043-0.019l0.029,0.002l-0.001,0.021L98.216,65.455z M98.433,65.4l-0.064,0.01l0.052-0.039l0.017-0.06
		l0.03,0.047v0.028L98.433,65.4z M98.665,65.35l-0.03,0.02l-0.014-0.006v-0.03l-0.043-0.067l0.002-0.017l0.098,0.065l0.002,0.017
		L98.665,65.35z M98.956,65.283l-0.046,0.024l-0.047-0.018l0.052-0.023l0.155-0.025l-0.059,0.031L98.956,65.283z M99.171,65.196
		h-0.019l0.009-0.014l0.04-0.028l0.014,0.011l-0.002,0.014L99.171,65.196z M99.362,65.097l-0.027,0.005l0.039-0.043l0.011,0.003
		L99.362,65.097z M99.618,64.858l-0.199,0.188l0.022-0.047l0.078-0.101l0.025-0.047l0.052-0.03l0.049-0.055l0.004-0.063l0.071-0.044
		l0.023-0.007L99.618,64.858z M97.963,63.546l-0.036,0.026l-0.072-0.021l-0.039-0.034l-0.017-0.067l0.062,0.071l0.023,0.016
		L97.963,63.546z M97.916,63.448l-0.001,0.058l-0.051-0.098l-0.033-0.109l0.048,0.035L97.916,63.448z M82.829,63.841l-0.014,0.046
		l-0.082-0.217l-0.135-0.491L82.593,62.9l0.021-0.097l0.035,0.396l0.149,0.501L82.829,63.841z M82.646,62.7l-0.031,0.057
		l0.009-0.085l0.081-0.195l0.165-0.256l0.069-0.043l-0.19,0.281L82.646,62.7z M99.813,62.722l0.016,0.073l-0.091-0.171l-0.114-0.267
		l-0.061-0.208l0.041,0.056l0.04,0.116L99.813,62.722z M82.986,62.098l-0.022,0.003l0.048-0.082l0.009-0.033l0.08-0.103l0.042-0.016
		l0.017,0.044l-0.081,0.073L82.986,62.098z M83.236,61.847l-0.037,0.005l0.045-0.054l0.074-0.028l0.163-0.103l0.066-0.008
		l0.034-0.035l0.015-0.006l-0.009,0.044l-0.131,0.062L83.236,61.847z M84.96,60.854l-0.05,0.01l0.218-0.154l0.046-0.051l0.058,0.002
		l-0.097,0.086L84.96,60.854z M88.206,60.499l-0.037,0.015l-0.165-0.087l-0.011-0.037l0.082-0.034l0.05,0.003l0.078,0.044
		l0.029,0.012l0.014,0.018l-0.008,0.028L88.206,60.499z M95.092,60.357l-0.1,0.036l-0.109-0.026l0.068-0.005l0.048,0.011
		l0.124-0.052l0.065-0.039l0.075-0.014L95.092,60.357z M91.111,60.287l-0.055,0.053l0.003-0.02l0.04-0.053l0.028-0.02L91.111,60.287
		z M91.173,60.192l-0.029,0.032l0.028-0.152l-0.039-0.129L91.174,60l0.013,0.067L91.173,60.192z M90.776,59.916l0.004,0.046
		l-0.049-0.023l-0.073-0.002l0.032-0.016l0.022-0.015l0.012-0.017l0.091-0.058l-0.026,0.043L90.776,59.916z M91.442,59.784
		l-0.013,0.011l-0.088-0.021l-0.054-0.019l-0.01-0.019l0.149,0.035L91.442,59.784z M91.929,59.748l-0.088,0.021l-0.131-0.002
		l-0.026-0.007l0.052-0.015l0.155-0.019L91.929,59.748z M98.581,59.029l-0.044,0.243l-0.02-0.086l-0.002-0.084l0.034-0.049
		L98.581,59.029z M61.65,57.172l-0.059,0.009l-0.064-0.02l-0.056-0.097l-0.061-0.075l0.033-0.022l0.05,0.073l0.124,0.111
		L61.65,57.172z M60.562,56.783l-0.044,0.002l-0.062-0.01l-0.031-0.053l0.05-0.004l0.046,0.007l0.037,0.043L60.562,56.783z
		 M61.652,56.614l0.051,0.074l-0.073-0.009l-0.076,0.004l-0.023-0.04l-0.023-0.056l-0.015-0.014l-0.052-0.005l-0.004-0.005
		l-0.006-0.027l0.014-0.013l0.163,0.062L61.652,56.614z M59.956,56.081l-0.07,0.014l-0.053-0.013l-0.085-0.096l0.18-0.013
		l0.078,0.042l0.01,0.012L59.956,56.081z M59.693,55.975l-0.053,0.003l-0.082-0.011l0.029-0.023l0.045-0.017l0.015,0.012
		L59.693,55.975z M60.118,55.92l0.203,0.052l0.11-0.025l0.02,0.025l-0.013,0.021l-0.248,0.039l-0.076-0.027l-0.006-0.037
		l-0.026-0.036L60.118,55.92z M103.454,55.345l-0.022,0.002l-0.04-0.011l-0.054-0.021l-0.012-0.015l0.052,0.005L103.454,55.345z
		 M103.496,55.357l-0.025,0.011l0.092-0.124l0.181-0.159l0.049-0.024l-0.151,0.135L103.496,55.357z M104.218,54.81l-0.182,0.071
		l-0.02-0.004l0.119-0.051L104.218,54.81z M104.456,54.76l-0.134,0.027l-0.012-0.009l0.154-0.057l0.048-0.201l0.007-0.092
		l-0.023-0.163v-0.034l0.026,0.053l0.022,0.152l-0.009,0.115l-0.044,0.169L104.456,54.76z M104.364,54.144l-0.015,0.02l-0.066-0.11
		l0.068,0.036l0.012,0.029L104.364,54.144z M104.667,52.112l-0.046,0.016l0.153-0.2l0.089-0.168l0.039-0.058l-0.038,0.117
		l-0.067,0.109L104.667,52.112z M105.867,50.319l-0.118,0.152l-0.002-0.029l0.146-0.188L105.867,50.319z M105.812,49.477
		l-0.048,0.004l0.048-0.096l0.088-0.043l0.031,0.009l0.002,0.034l-0.013,0.029l-0.059,0.044L105.812,49.477z M107.49,49.014
		l-0.071,0.065l0.064,0.006l0.056-0.019l0.052-0.038l0.122-0.052l0.103-0.023l0.033-0.004l0.049,0.036l0.098-0.029l0.101-0.017
		l-0.436,0.167l-0.089,0.019l-0.128,0.049l-0.12,0.035l-0.087,0.013l-0.431,0.124l-0.035,0.002l-0.037-0.012l-0.355,0.064
		l-0.146,0.007l-0.133,0.022l0.099-0.051l0.002-0.019l-0.024-0.015l-0.052,0.004l-0.054,0.053l-0.086,0.018l-0.017-0.058
		l0.029-0.044l0.038-0.042l0.086-0.067l0.122-0.042l0.062-0.036l0.043,0.032l0.009-0.043l0.033-0.025l0.036-0.014h0.087l0.046-0.007
		l0.034-0.014l0.034-0.003l0.095,0.02l0.092-0.006l0.075-0.027l0.077-0.009l0.205-0.006l0.204-0.02l0.081-0.035l0.171-0.099
		l0.099-0.027l-0.153,0.114L107.49,49.014z M110.022,48.734l-0.077,0.017l-0.178-0.037l0.146-0.032l0.024-0.01l0.019-0.046
		l0.003-0.023l0.055,0.098L110.022,48.734z M109.49,48.624l-0.275,0.049l-0.044-0.032l0.069-0.015l0.086-0.075l0.058-0.008
		l0.091,0.042L109.49,48.624z M108.635,48.515l-0.028,0.018l-0.01-0.048l0.019-0.056l0.02-0.001l0.01,0.03L108.635,48.515z
		 M108.759,48.508l-0.05,0.027l-0.055-0.004l0.028-0.037l0.011-0.054l0.027-0.06l0.016-0.018l0.032-0.016L108.759,48.508z
		 M111.377,45.804l-0.038,0.02l-0.041-0.007l-0.001-0.049l0.012-0.017l0.014-0.007l0.021,0.014L111.377,45.804z M111.813,45.668
		l-0.058,0.019l-0.064-0.009l0.001,0.053l-0.007,0.019l-0.071-0.027l-0.026-0.017l0.003-0.07l0.062-0.066l0.048-0.027l0.061,0.019
		l0.047,0.074L111.813,45.668z M57.147,42.795l-0.01,0.02l-0.014-0.001l-0.031-0.04l-0.004-0.028l0.027-0.021l0.036,0.059
		L57.147,42.795z M57.606,42.605l-0.005,0.022l-0.038,0.018l-0.02-0.004l-0.001-0.027l-0.011-0.004l-0.041,0.032l0.003-0.064
		l0.021-0.067l0.017-0.001l0.027,0.044L57.606,42.605z M57.503,42.405l-0.006,0.02l-0.055-0.023l-0.018-0.021l0.002-0.048
		l0.014-0.031l0.01-0.006l0.033,0.013l0.009,0.008L57.503,42.405z M57.427,41.843l0.049,0.132l0.021-0.055l0.136,0.095v0.046
		l-0.016,0.016l-0.028,0.005l-0.027-0.013l-0.024-0.033l-0.03-0.017l-0.066-0.011l-0.033-0.038l-0.012-0.025l-0.003-0.074
		l-0.017-0.022l-0.034-0.005l-0.033-0.018l-0.052-0.051l-0.007-0.014l0.024-0.042l0.056-0.07l0.04-0.033l0.025,0.003l0.032,0.021
		l0.036,0.039l-0.006,0.027l-0.15,0.053l-0.005,0.012l0.073,0.015l0.026,0.014L57.427,41.843z M57.179,41.569l-0.016,0.009
		l-0.053-0.013l-0.032-0.022l-0.01-0.028l0.02-0.053l0.026-0.014l0.017,0.003l0.007,0.047l0.047,0.05L57.179,41.569z M56.987,41.499
		l0.026,0.033l-0.107-0.021l-0.046-0.019l-0.013-0.018l-0.017-0.061l0.008-0.019l0.048-0.007l0.09,0.075L56.987,41.499z
		 M57.218,41.327l0.013,0.022l-0.04,0.021l-0.029,0.003l-0.045-0.034l-0.02-0.004l0.016,0.053l-0.006,0.017l-0.093-0.032
		l-0.017-0.025l0.026-0.027l0.059-0.028l0.02-0.003L57.218,41.327z M85.197,40.997l0.09,0.14l0,0l0.008,0.054l0.03,0.035
		l0.054,0.031l0.207,0.039l0.359,0.045l0.203,0.052l0.048,0.058l0.096,0.024l0.144-0.012l0.1-0.024l0.086-0.056l0.12-0.012
		l0.103,0.004l0.103,0.005l0.056,0.008l0.159,0.044l0.104,0.036l0.15,0.067l0.082,0.03l0.04,0.069l0.046,0.089h0.067l0.049-0.052
		l0.127-0.009l0.167,0.036l0.147,0.104l0.211,0.093l0.129,0.047l0.131-0.001l0.166-0.046l0.178-0.089l0.127-0.015l0.076,0.008
		l0.043,0.07l0.053,0.026l0.137-0.008l0.287,0.014l0.228-0.019l0.052,0.04l0.046,0.063l0.093,0.02l0.126-0.02L90.449,42l0.095,0.004
		l0.183-0.024l0.087-0.027l0.123-0.047l0.164-0.062l0.287-0.108l0.234-0.039l0.217,0.078l0.174,0.068l0.067,0.027l0.176,0.069
		l0.25,0.099l0.286,0.113l0.286,0.114l0.25,0.099l0.176,0.069l0.067,0.027l0.195,0.08l0.194,0.08l0.194,0.08l0.194,0.08l0.194,0.08
		l0.194,0.08l0.194,0.08l0.194,0.08l0.049,0.133l0.048,0.13l0.113,0.094l0.104,0.086l0.06-0.005l0.062-0.036l0.038-0.018
		l0.065-0.003l0.145-0.031l0.043,0.007l0.024,0.016l0.002,0.024l-0.005,0.019l-0.022,0.039l0.035,0.074l0.007,0.082l0.02,0.062
		l0.059,0.08l0.051,0.062l0.065,0.012l0.15-0.036l0.094-0.014l0.053,0.006l0.091,0.058l0.045,0.035l0.011,0.029l-0.124,0.178
		l0.196,0.088l0.218,0.096l0.26,0.115l0.159,0.07l0.209,0.101l0.036,0.143l0.03,0.12l0.038,0.168l0.04,0.172l0.039,0.171
		l0.041,0.181l0.046,0.2l0.04,0.177l0.044,0.193l0.059,0.251l-0.052,0.097l-0.115,0.211l-0.103,0.19l-0.009,0.056l-0.071,0.277
		l-0.057,0.115l-0.1,0.067l-0.099,0.065l-0.124,0.108l-0.136,0.053L96.927,47.7l-0.037,0.049l-0.04,0.109l0.008,0.166l0.112,0.143
		l0.164,0.08l0.176,0.078h0.251l0.226-0.104l0.239-0.11l0.213-0.098l0.254-0.116l0.229-0.106l0.25-0.038l0.345-0.053l0.435-0.066
		l0.212-0.075l0.274-0.098l0.316-0.112l0.272-0.098l0.137-0.053l0.098-0.062l0.024-0.045l-0.006-0.026l-0.025-0.026l-0.035-0.02
		l-0.031-0.016l-0.014-0.02l-0.003-0.045l-0.019-0.025l-0.018-0.019l0.007-0.172l-0.024-0.053l-0.089-0.136l0.17-0.06l0.156-0.056
		l0.126-0.042l0.262-0.006h0.243l0.336,0.001l0.282,0.001l0.33,0.002h0.194l0.253-0.002l0.123-0.156l0.111-0.139l0.121-0.134
		l0.216-0.156l0.063-0.028l0.035-0.062l0.131-0.059l0.144-0.054l0.057-0.051l0.027-0.029l0.391-0.275l0.222-0.127l0.183-0.071
		l0.139-0.034l0.095,0.005l0.053-0.005h0.046h0.233l0.416-0.001h0.416l0.416-0.001h0.416l0.416-0.001h0.416l0.416-0.001l0.099-0.192
		l0.092-0.09l0.125,0.03l0.067-0.003l0.075-0.046l0.06-0.028l0.04,0.004l0.034,0.042l0.028,0.029l0.033-0.009l0.028-0.04
		l-0.001-0.055l0.039-0.039l0.046-0.006l0.042,0.002l0.021-0.019l-0.002-0.027l-0.015-0.044l0.005-0.052l0.106-0.093l0.129-0.063
		l0.046-0.031l0.013-0.064l0.075-0.066l0.037-0.038l0.009-0.033l-0.019-0.041l0.001-0.077l0.026-0.093l0.031-0.101l0.068-0.091
		l0.113-0.099l0.029-0.13l0.03-0.138l0.136-0.134l0.154-0.152l0.088-0.086l0.159-0.158l0.112-0.112l0.057-0.051l0.059-0.061
		l0.097,0.018l0.096,0.018l-0.014,0.089l0.015,0.064l0.046,0.038l0.066,0.025l0.05,0.008h0.058l0.16-0.05l0.189-0.033l0.103-0.03
		l0.019-0.029l0.047-0.009l0.076,0.008l0.138,0.071l0.162,0.107l0.128,0.085l0.004,0.147l0.003,0.156l0.002,0.164l0.002,0.118
		l0.003,0.161l0.003,0.128l0.004,0.167l0.001,0.089l0.018,0.026l-0.011,0.035l-0.004,0.018l0.001,0.014l0.007,0.017l-0.001,0.025
		l-0.017,0.022L112.2,44.23l-0.002,0.042l0.017,0.026l0.03,0.016h0.024l0.032,0.015l0.041,0.027l0.062,0.023l0.065,0.008
		l0.044-0.005l0.054,0.015l0.019,0.037l-0.01,0.036l-0.031,0.016l-0.033,0.013l-0.006,0.027l0.017,0.028l0.023,0.025l0.026,0.043
		l-0.011,0.038l-0.023,0.031l-0.011,0.033l0.02,0.028l0.053,0.038l0.033,0.036l0.052,0.02l0.024-0.014l0.02-0.019l0.021-0.014
		l0.037,0.008l0.042,0.011l0.046,0.013l-0.005,0.03l0.028,0.051l0.022,0.099l-0.034,0.045l0.007,0.059l0.093,0.017l0.023,0.018
		l0.004,0.022l-0.204,0.152l-0.173-0.021l-0.094,0.04l-0.098,0.012l-0.043,0.068l-0.054,0.015l-0.074-0.004l-0.063-0.02l-0.049,0.01
		l-0.068,0.122l-0.056-0.01l-0.022,0.044l-0.029,0.019l-0.043,0.017l-0.037-0.055l-0.023-0.052l-0.035-0.011l-0.046-0.013h-0.048
		l-0.031,0.008l-0.04,0.033l-0.057,0.029l-0.043-0.024l-0.034-0.039l-0.028,0.062l-0.042,0.066l0.007,0.076l-0.019,0.045
		l-0.039-0.012l-0.04-0.04l-0.111-0.031l-0.089,0.003l0.018-0.043l0.084-0.061l-0.026-0.011l-0.041,0.008l-0.018-0.008l0.029-0.056
		l0.003-0.062L111.2,45.45l-0.047,0.064l-0.114,0.051l0.005,0.086l-0.108,0.176l-0.004,0.074l-0.069,0.06l-0.089,0.052l-0.119-0.015
		l-0.09,0.045l-0.046,0.051l-0.04,0.008l-0.021-0.066l-0.015-0.02l-0.033,0.096l-0.034,0.006l-0.013-0.068l-0.016-0.045
		l-0.046,0.039l-0.031,0.103l-0.032-0.009l-0.01-0.038l-0.023-0.012l-0.008,0.044l0.011,0.062l-0.016,0.033l-0.032-0.018
		l-0.033-0.03l-0.053,0.023l-0.048,0.009l-0.001-0.03l0.01-0.037l-0.097,0.02l-0.117,0.069l-0.09,0.094l0.031,0.016l0.035,0.03
		l-0.157,0.146l-0.161,0.131l-0.121,0.215l-0.049,0.025l-0.042,0.039l-0.045,0.129l-0.051,0.116l0.029,0.051l0.019,0.053
		l0.045,0.052l0.039,0.004l0.042-0.009l0.031,0.002l0.02,0.022l-0.009,0.027l-0.048,0.006l-0.091,0.047l-0.079,0.017l-0.04,0.056
		l-0.059,0.065l-0.116,0.101l0.049,0.031l0.179,0.035l0.08,0.036l0.12,0.189l-0.027,0.018l-0.011,0.035l0.107,0.048l0.034,0.136
		l0.088,0.046l0.132,0.028l0.16-0.041l0.134-0.056l-0.005-0.046l-0.084-0.108l-0.02-0.05l-0.063-0.033l-0.023,0.028l-0.041-0.036
		l-0.004-0.02l0.038-0.01l0.043,0.004l0.051,0.019l0.131,0.117l0.036,0.153l0.008,0.098l-0.015,0.033l-0.038-0.007l-0.073,0.007
		l-0.345,0.05l-0.076,0.045l-0.176,0.048l-0.011-0.024l0.013-0.05l-0.011-0.102l-0.035-0.005l-0.273,0.166l-0.106,0.011
		l-0.089,0.049l-0.019-0.027l-0.016-0.125l0.055-0.105l-0.029,0.002l-0.093,0.063l-0.04-0.039l-0.02-0.042l-0.028-0.024
		l-0.031-0.009l0.026,0.092l-0.062,0.07l-0.017,0.179l-0.079,0.075l-0.246,0.048l-0.161-0.01l-0.144,0.015l-0.191,0.034l-0.106-0.02
		l-0.108,0.036l-0.368,0.01l-0.078-0.019l-0.099,0.069l-0.158,0.04l-0.401,0.154l-0.088,0.056l-0.108,0.088l-0.072,0.047
		l-0.06,0.015l-0.036,0.039l-0.04,0.026l0.038-0.088l0.042-0.073l0.035-0.143l-0.01-0.116l-0.043-0.047l-0.045-0.032l0.052,0.114
		l0.009,0.14l-0.018,0.082l-0.099,0.158l-0.041,0.036l-0.049,0.033l-0.037,0.014l-0.034,0.025l-0.04,0.04l-0.037,0.079l0.021,0.073
		l0.192,0.026l0.052-0.022l0.026,0.052l0.014,0.072l-0.014,0.077l-0.032,0.08l-0.024,0.098l-0.021,0.15l-0.031,0.135l-0.004-0.041
		l0.019-0.164l-0.031,0.017l-0.022,0.038l-0.058,0.211l-0.081,0.113l-0.074,0.078l-0.076-0.013l0.017,0.062l-0.021,0.032
		l-0.018,0.068l-0.045,0.044l-0.043-0.004l-0.062,0.031l-0.024,0.023l-0.002,0.045l-0.041,0.04l-0.148,0.206l-0.129,0.061
		l-0.031-0.009l0.034-0.097l0.023-0.098l-0.078-0.043l-0.075-0.023l-0.086,0.003l-0.095-0.076l-0.122-0.056l-0.171-0.15l0.005-0.042
		l-0.005-0.07l0.052-0.11l0.05-0.078l0.069-0.04l0.199-0.04l0.05-0.062l0.03-0.051l-0.099,0.088l-0.148,0.03l-0.08,0.033
		l-0.063,0.051l-0.038,0.064l-0.086,0.076l0.006,0.052l0.015,0.036l-0.007,0.076l0.054,0.074l0.107,0.122l0.021,0.188l0.082,0.126
		l0.125,0.148l0.096,0.041l0.005,0.055l-0.044,0.091l-0.059,0.041l0.076-0.008l0.038,0.02l0.037,0.076l-0.003,0.077l-0.012,0.043
		l-0.023,0.017l0.001-0.044l-0.017-0.015l-0.027,0.019l-0.017,0.022l-0.007,0.086l-0.019,0.043l-0.065,0.013l-0.067,0.113
		l-0.062,0.064l-0.242,0.434l0.009,0.072l-0.045,0.024l-0.067,0.019l-0.068,0.043l-0.045,0.048l-0.042,0.128l-0.08,0.145
		l-0.051-0.06l-0.012-0.052l0.022-0.134l0.087-0.221l0.096-0.137l0.073-0.065l0.06-0.133l-0.076-0.02l-0.116,0.002l0.022-0.061
		l0.034-0.054l-0.061-0.053l-0.035-0.007l-0.037-0.022l0.043-0.045l0.021-0.047l-0.013-0.058l0.018-0.043l-0.03,0.006l-0.048,0.046
		l-0.03,0.019l-0.019-0.041l-0.021,0.009l-0.013,0.028l-0.031,0.015l-0.065-0.038l-0.096-0.043l-0.053-0.075l-0.03-0.059
		l0.031-0.105l0.066-0.019l0.085,0.017H104l-0.016-0.023l-0.04,0.004l-0.118-0.086l-0.038-0.051l-0.065-0.014l-0.03,0.049
		l-0.033,0.013l0.041-0.108l0.053-0.005l0.079-0.03l-0.023-0.063l-0.05-0.027l-0.09,0.034l0.001-0.044l0.017-0.056h0.068
		l0.059,0.018l0.051-0.091l0.002-0.041l-0.084,0.059l-0.019-0.128l0.083-0.123l0.079-0.054l0.098,0.002l0.1-0.009l-0.063-0.023
		l-0.064-0.012l0.048-0.049l0.042-0.008l0.04-0.043l-0.097,0.006l0.011-0.08l-0.047,0.016l-0.057,0.008l-0.022,0.034l0.004,0.057
		l-0.016,0.037l-0.044,0.03l-0.075,0.023l-0.007-0.04l-0.025-0.019l-0.009,0.087l-0.019,0.029l-0.055-0.081l-0.016,0.016
		l0.002,0.023l-0.014,0.04l-0.047,0.021l0.003,0.051l-0.018,0.028l-0.149-0.044l-0.004,0.015l0.085,0.095l0.061,0.033l0.008,0.052
		l-0.053,0.043l-0.073-0.037l-0.013,0.003l0.04,0.064l0.025,0.056l-0.026,0.047l0.004,0.057l-0.005,0.053l-0.016,0.045l0.036,0.211
		l0.042,0.057l0.043,0.055l0.022,0.051l-0.045,0.007l-0.071-0.042l-0.062-0.032l-0.075-0.103l-0.012-0.041l-0.018-0.032l0.008,0.074
		l0.027,0.084l0.233,0.186l0.043,0.071l0.033,0.056l-0.008,0.054l-0.061-0.038l-0.052-0.049l-0.14-0.054l-0.175-0.035l-0.099-0.127
		v0.053l-0.022,0.045l-0.06-0.055l-0.038-0.047L103,51.555l-0.076,0.003l-0.079,0.045l-0.077-0.011l-0.009-0.087l0.021-0.046
		l0.086-0.109l0.081-0.056l0.036-0.072l-0.012-0.111l-0.016,0.113l-0.046,0.056l-0.073,0.043L102.74,51.4l-0.024,0.071l-0.03,0.132
		l0.041,0.045l0.041,0.012l0.122-0.03l0.063,0.013l0.141,0.16l0.261,0.063l0.095,0.04l0.078,0.083l0.117,0.048l0.091,0.069
		l0.002,0.046l-0.031,0.054l-0.013,0.072l-0.038,0.046l-0.093,0.006l-0.055-0.012l-0.301-0.256l-0.036-0.024l-0.111-0.133
		l-0.131-0.072l-0.04,0.001l0.186,0.133l0.076,0.093l0.134,0.13l0.095,0.055l0.071,0.086l0.065,0.04l0.178,0.057l-0.062,0.042
		l0.099,0.035l0.015,0.064l-0.009,0.074l-0.138-0.029l-0.004,0.054l0.012,0.032l-0.061,0.026l-0.084-0.035l-0.22-0.196l0.002,0.026
		l0.018,0.03l0.127,0.126l0.114,0.076l0.096,0.034l0.074,0.064l0.026,0.038l0.018,0.058l-0.055,0.04l-0.063,0.022l-0.061-0.04
		l-0.045-0.041l-0.095-0.071l-0.029-0.079l-0.073,0.004l-0.303-0.1l-0.244-0.011l0.024,0.02l0.031,0.013l0.194,0.025l0.077,0.046
		l0.16,0.041l0.093,0.011l0.038,0.126l0.129,0.086l0.017,0.064l0.088,0.007l0.156-0.063l0.1,0.022l0.145,0.018l0.033,0.051
		l0.024,0.096l0.052,0.109l0.132,0.428l0.199,0.35l0.025,0.06l-0.046-0.053l-0.148-0.232l-0.082-0.167l-0.084-0.296l-0.024-0.066
		l-0.028-0.026l-0.019,0.021l-0.008,0.038l0.013,0.029l-0.033,0.097l0.015,0.045l0.053,0.046l0.058,0.115l0.047,0.155l-0.063-0.063
		l-0.067-0.033l-0.105-0.026l-0.093-0.044l0.007,0.064l-0.009,0.069l-0.072-0.021l-0.049-0.023l0.044,0.074l-0.094-0.022
		l-0.063,0.004l-0.04,0.066l-0.055,0.04l-0.08,0.013l-0.12-0.06l-0.039-0.073l-0.016-0.081l-0.006,0.096l0.021,0.099l-0.007,0.076
		l0.115,0.014l0.107-0.012l0.146,0.003l0.094-0.014l0.057-0.024l0.137,0.021l0.01,0.091l-0.016,0.091l-0.008,0.097h0.038
		l0.045-0.031l0.022-0.174l0.125-0.064l0.042,0.004l0.04,0.056l0.013,0.057l0.014,0.078l-0.029,0.118l-0.192,0.139l-0.138,0.128
		l-0.07,0.026l-0.101-0.015l-0.115-0.032l-0.057-0.007l-0.042,0.011l-0.027-0.039l-0.016-0.072l-0.045-0.024l-0.034,0.002
		l-0.023,0.077l-0.107,0.022l-0.146-0.032l-0.153-0.064l0.066,0.069l0.379,0.128l0.042,0.024l0.04,0.036l-0.053,0.055l-0.042,0.062
		l-0.005,0.049l-0.015,0.031l-0.151,0.083l-0.082-0.015l-0.209-0.15l0.095,0.13l0.076,0.055l0.154,0.029l0.288-0.048l0.095,0.053
		l-0.078,0.093l-0.077,0.066l-0.101,0.007l-0.089,0.018l-0.026,0.045l-0.064,0.003l-0.099,0.003l-0.154,0.004l-0.084-0.011
		l-0.118,0.092l-0.044,0.013l-0.062-0.017l-0.026-0.074l-0.028-0.037l-0.001,0.139l0.011,0.037l0.022,0.028l-0.138,0.076
		l-0.132,0.093l-0.047,0.026l-0.054,0.047l-0.11,0.136l-0.027,0.099l-0.04,0.11l-0.005-0.049l0.007-0.084l-0.027-0.096l-0.018,0.176
		l-0.042,0.081l-0.393-0.006l-0.172,0.045l-0.263,0.149l-0.079,0.065l-0.218,0.253l-0.056,0.162l-0.044-0.068l0.011-0.051
		l0.001-0.042l-0.055,0.09l0.052,0.13l-0.047,0.05l-0.144,0.092l-0.079,0.016l-0.088,0.026l-0.028,0.092l-0.12,0.084l-0.07,0.038
		l-0.128-0.023l0.039,0.081l-0.047,0.062l-0.081,0.047l-0.101,0.031l-0.057-0.004l-0.05,0.016l-0.038,0.04l-0.095,0.036l-0.098-0.02
		l-0.111-0.013l-0.062,0.022l0.104,0.037l0.056,0.052l-0.012,0.071l-0.028,0.028l-0.065,0.037l-0.029-0.006l-0.018-0.033
		l-0.021-0.07l-0.031,0.015l-0.005,0.032l-0.026,0.012l-0.094-0.111l0.005,0.085l0.033,0.065l0.031,0.033l0.032,0.019l0.008,0.03
		l-0.064,0.074l-0.033,0.016l-0.058,0.012l-0.033,0.045l0.01,0.039l-0.051,0.085l-0.123,0.053l-0.037-0.002l-0.03,0.015l0.017,0.038
		l0.031,0.028l-0.001,0.025l-0.032,0.035l-0.064,0.009l-0.036,0.04l0.011,0.037l0.021,0.021L98.83,58.39l-0.072,0.036l-0.017,0.035
		l0.036,0.011l0.027-0.011l0.021,0.008l-0.044,0.059l-0.039,0.036l-0.037,0.065l-0.086,0.018l0.003,0.021l0.049,0.018l0.041,0.05
		l-0.077,0.092l-0.048-0.007L98.558,58.8l-0.018,0.073l0.007,0.039l-0.018,0.079l-0.03,0.095l-0.019,0.039l0.004,0.073l0.012,0.071
		l0.047,0.09l0.071,0.371l0.049,0.129l0.087,0.347l0.145,0.337L99.1,60.95l0.336,0.494l0.04,0.07l-0.044,0.06l-0.013,0.061
		l-0.004,0.093l0.012,0.091l0.04,0.111l0.076,0.169L99.5,62.066l-0.11-0.244l-0.013-0.142l0.016-0.203l-0.026,0.005l-0.021,0.066
		l-0.011,0.077l-0.028,0.03l-0.039-0.118l0.003-0.053l0.041-0.063L99.3,61.399l-0.066-0.032l-0.014-0.05l0.009-0.049l-0.038-0.027
		l-0.029,0.001l0.02,0.122l0.031,0.075l0.038,0.18l0.063,0.109l0.036,0.091l0.424,0.974l0.1,0.124l0.037,0.089l0.039,0.186
		l0.009,0.239l-0.07,0.437l-0.015,0.298l-0.01-0.009l-0.007-0.031l-0.016-0.004l-0.06,0.136l-0.082,0.123l-0.027,0.192l-0.039,0.096
		l-0.118,0.101l-0.073-0.002l-0.179,0.076l-0.125-0.02l-0.15,0.043l-0.098-0.005l-0.057-0.091l0.008-0.04l0.023-0.041l0.038-0.009
		l0.133,0.095l0.025-0.04l-0.04-0.048l-0.077-0.026l-0.056-0.029l-0.114-0.216l-0.118-0.149l-0.02-0.099l-0.203-0.061l-0.147-0.091
		l-0.096-0.163l-0.056-0.289l-0.064-0.032l-0.028-0.023l0.063-0.107l0.067-0.09l-0.053,0.022l-0.039,0.034l-0.049,0.079
		l-0.036,0.012l-0.034-0.012l-0.038-0.152l0.011-0.188l0.054-0.07l-0.083-0.001l-0.085,0.026l0.012,0.063l-0.012,0.034l-0.062-0.009
		l-0.047-0.022l-0.064-0.065l-0.087-0.124l-0.179-0.341l-0.035-0.048l-0.06-0.051l0.028-0.015l0.051-0.01l0.115-0.153l0.09-0.093
		l0.03-0.064l-0.005-0.028l-0.04-0.04l-0.052,0.035l-0.023-0.01l-0.059-0.08l-0.056-0.023l-0.039,0.017l0.041,0.066l0.037,0.025
		l-0.014,0.096l-0.015,0.031l-0.035,0.028l-0.054-0.015l-0.028,0.024l-0.032-0.025l-0.033-0.043l-0.036-0.069l0.095-0.391
		l0.088-0.249l0.01-0.284l0.007-0.042l-0.007-0.075l-0.118-0.165l-0.521-0.4l-0.404-0.474l-0.35-0.178l-0.266,0.039l-0.046,0.036
		l-0.019,0.047l0.016,0.053l-0.024,0.022l-0.071-0.003l-0.096,0.012l-0.251,0.125l-0.088-0.005l-0.08,0.033l-0.06,0.024
		l-0.157,0.013l-0.133,0.028l-0.057-0.015l-0.038-0.073v-0.074l0.031,0.057l0.047,0.045l0.021-0.018l0.008-0.04l-0.047-0.078
		l-0.15-0.1l-0.172-0.146l0.053,0.005l0.013-0.031l-0.053-0.041l0.022-0.048l0.037-0.05l-0.072,0.008l-0.065,0.035l-0.002,0.043
		l-0.013,0.034l-0.035-0.005l-0.065-0.042l-0.319-0.119l-0.279-0.066l0.214-0.03l0.116,0.023l-0.014-0.036l-0.028-0.022
		l-0.091-0.029l-0.117,0.011l-0.074-0.014l-0.075,0.029l-0.083,0.042l-0.074,0.022l-0.288,0.031l-0.233,0.033l0.037-0.035
		l0.04-0.023l0.138-0.034l0.021-0.071l-0.033-0.068l-0.036,0.016L92.928,59.5l-0.047-0.039h-0.052l-0.014,0.085l-0.066,0.057
		l-0.03,0.058l-0.195,0.045l-0.025-0.015l0.057-0.055l-0.004-0.03l-0.065,0.026l-0.109,0.103l-0.384,0.034l0.021-0.023l0.081-0.005
		l0.114-0.033l-0.023-0.055l-0.044-0.06l-0.041-0.007l-0.026-0.036l0.001-0.112l-0.026-0.065l-0.062-0.067l-0.021,0.013
		l-0.046,0.115l-0.039,0.151l-0.018,0.048l-0.114,0.004l-0.101-0.01l-0.342,0.018l-0.128-0.051l-0.053-0.01l-0.032,0.001
		l-0.149,0.047l-0.17,0.036l-0.04-0.012l-0.057-0.001l-0.123,0.122l-0.144,0.057l-0.366-0.103l-0.091-0.082l-0.081-0.018
		l-0.099-0.01l-0.107,0.101l-0.081,0.138l0.128,0.075l0.11,0.036l0.181-0.03l0.1-0.067l0.082,0.002l0.039-0.013l0.036-0.035
		l0.069,0.027l0.003,0.028l-0.05,0.039l-0.062,0.032l-0.038,0.039l0.071,0.077l0.112,0.026l0.042-0.011l0.027-0.087l0.069-0.056
		l0.093,0.012l-0.013,0.035l0.013,0.033l0.043,0.057l-0.005,0.081l0.009,0.02l-0.101,0.036l-0.076,0.012l-0.06,0.047l0.032,0.027
		l-0.062,0.024l-0.041-0.01l-0.021,0.009l-0.006,0.029l-0.032,0.027l0.046,0.08l0.095,0.053l0.066,0.066l0.268,0.087l0.065-0.003
		l0.064,0.088l0.052,0.03l0.049,0.015l-0.005,0.06l-0.089,0.044l-0.023,0.053l-0.023,0.029l-0.039-0.037l-0.041-0.027l-0.095,0.082
		l-0.045,0.018l0.022-0.089l-0.035-0.035l-0.054-0.089l-0.079-0.055l-0.055-0.019l-0.043-0.034l-0.052-0.015l-0.045,0.004
		l-0.075-0.02l-0.005-0.048l-0.021-0.035l-0.059-0.042l-0.282-0.079l-0.002,0.033l0.02,0.024l0.04,0.017l0.049,0.032l-0.001,0.094
		l-0.021,0.04l-0.009,0.057l-0.018,0.058l-0.035,0.046l-0.077,0.031l-0.034-0.026l-0.055-0.125l-0.077-0.039L89.497,60.7
		l-0.083,0.028l-0.092,0.121l-0.073,0.02l-0.252-0.063l-0.287-0.095l0.007-0.032l0.045-0.01l0.087,0.013l-0.004-0.033l-0.089-0.106
		l-0.016-0.048l0.011-0.059l-0.029,0.001l-0.053,0.049l-0.183-0.041l-0.051-0.05l-0.107-0.141l-0.152-0.005l-0.069-0.085
		L87.983,60.2l-0.063,0.039l-0.055,0.062l0.021,0.031l0.055,0.051l-0.025,0.024l-0.177,0.036l-0.41-0.04l-0.12-0.038l-0.161-0.079
		l-0.224-0.065l-0.107-0.01l-0.104,0.012l-0.307,0.007l-0.071,0.017l-0.06,0.028l-0.04-0.031l-0.018-0.054l0.036-0.009l0.039-0.032
		l0.036-0.063l0.004-0.038l-0.025-0.025L86.16,60.02l-0.105,0.165l0.06,0.092l-0.004,0.034l-0.21,0.019l-0.474,0.185l-0.186,0.101
		l0.01-0.034l0.224-0.13l-0.079-0.02l-0.128,0.033l-0.045-0.013l0.054-0.107l-0.018-0.095l-0.09-0.003l-0.058,0.076l-0.04-0.003
		l-0.052-0.033l-0.041,0.011l0.03,0.171l0.057,0.071l0.048,0.089l-0.13,0.112l-0.121,0.091l-0.013,0.089l-0.122,0.115l-0.114,0.066
		l-0.268,0.153l-0.076,0.033l-0.121,0.072l-0.167,0.053l-0.161,0.085l-0.054,0.013l0.103-0.072l0.121-0.071l-0.104,0.01l-0.16-0.033
		l-0.098-0.002l-0.001,0.026l-0.075,0.037l-0.077-0.054l-0.034-0.036l-0.016-0.032l-0.033-0.007l-0.031,0.014l0.115,0.22l0.05,0.01
		l0.054,0.022l-0.068,0.051l-0.073,0.039l-0.114,0.026l-0.098-0.081l-0.021,0.101l-0.012,0.101l-0.033,0.026l-0.052,0.036
		l-0.028-0.027l-0.013-0.039l-0.034,0.034l-0.048,0.027l-0.081,0.005l-0.06,0.014l0.001,0.041l0.014,0.042l0.107-0.033l-0.039,0.108
		L82.83,62.12l-0.081,0.026l-0.122-0.016l-0.03,0.011l-0.028,0.022l0.143,0.166l-0.091,0.252l-0.059,0.091l-0.041,0.011
		l-0.044,0.003l-0.158-0.081l-0.086-0.062l0.076,0.17l0.207,0.05l0.01,0.064l-0.001,0.055l-0.041,0.065l-0.038,0.086l0.029,0.059
		l0.032,0.148l0.028,0.068l0.031,0.206l0.033,0.089l0.188,0.329l0.064,0.003l0.01,0.035l-0.006,0.069l-0.136,0.019l-0.057,0.031
		l-0.011,0.026l-0.008,0.014l-0.018-0.001l-0.064-0.019l-0.147-0.093L82.2,63.958l-0.282-0.022l-0.192-0.047l-0.103-0.071
		l-0.108-0.043l-0.112-0.013l-0.093-0.038l-0.074-0.064l-0.108-0.041l-0.142-0.018l-0.093-0.048l-0.064-0.117v-0.002l-0.058-0.196
		l-0.072-0.123l-0.142-0.152l-0.013-0.02l0,0l-0.001-0.025l0.018-0.088l-0.015-0.064l-0.045-0.052l-0.01-0.054l0.024-0.058
		l0.002-0.069l-0.021-0.081l-0.09-0.088l-0.159-0.094l-0.136-0.137L80,61.952l-0.111-0.125l-0.109-0.07l-0.075-0.085l-0.04-0.1
		l-0.012-0.058l0.016-0.017l-0.067-0.111l-0.151-0.207l-0.086-0.152l-0.023-0.096l-0.096-0.114l-0.169-0.132l-0.092-0.086
		l-0.023-0.059l0,0l-0.265-0.174l-0.076-0.109l-0.06-0.034l-0.069,0.004l-0.036-0.011l-0.001-0.024l-0.023-0.001l-0.043,0.022
		l-0.14,0.005l-0.239-0.014l-0.172-0.029l-0.106-0.046l-0.074,0.006l-0.043,0.058l-0.09,0.038l-0.139,0.017l-0.119,0.108l-0.1,0.2
		l-0.044,0.129l0.012,0.057l-0.026,0.042l-0.065,0.026l-0.066,0.058l-0.067,0.09l-0.078,0.044l-0.09-0.003l-0.165-0.07l-0.241-0.136
		l-0.189-0.084l-0.137-0.032l-0.121-0.062l-0.105-0.094l-0.096-0.062L75.6,60.427l-0.103-0.104l-0.118-0.176L75.32,60.01v-0.143
		l-0.155-0.314l-0.082-0.135l-0.061-0.063l-0.119-0.075l-0.178-0.086l-0.238-0.174l-0.299-0.26l-0.211-0.157l-0.124-0.053
		l-0.108-0.094l-0.091-0.134l-0.089-0.085l-0.009-0.004l-0.008-0.002l-0.22-0.001l-0.22-0.001l-0.22-0.002l-0.22-0.001l-0.219-0.001
		l-0.22-0.001l-0.22-0.001l-0.22-0.001v0.112l-0.001,0.113l-0.001,0.112v0.113h-0.354l-0.353,0.001l-0.354,0.001h-0.353
		l-0.354,0.001h-0.353l-0.354,0.001l-0.353,0.001l-0.474-0.148l-0.474-0.148l-0.475-0.148l-0.474-0.148l-0.474-0.148l-0.474-0.148
		l-0.475-0.148l-0.474-0.148l0.048-0.057l0.063-0.15l-0.114,0.01l-0.286,0.022l-0.286,0.021l-0.287,0.022l-0.286,0.021l-0.286,0.021
		l-0.286,0.022l-0.286,0.021l-0.286,0.022l-0.002-0.007l-0.007-0.109l-0.047-0.039l-0.059,0.024l-0.028-0.142l0.015-0.067
		l-0.007-0.066l-0.056-0.161l-0.148-0.195l-0.322-0.243l-0.163-0.082l-0.129-0.102l-0.081-0.029l-0.102-0.008l-0.03,0.047
		l-0.116-0.032l0.017-0.114l-0.113-0.159l-0.093-0.018l-0.233,0.011l-0.312-0.088l-0.092-0.052l-0.032-0.093l-0.146-0.082
		l-0.192-0.079l-0.107,0.018l-0.14-0.012l-0.2-0.057l-0.117-0.007l-0.226,0.016l-0.085-0.012l-0.079-0.072l-0.085-0.036l0.018-0.089
		l-0.011-0.08l0.013-0.063l-0.038-0.137l0.029-0.127l-0.025-0.046l-0.048-0.036l-0.15-0.052l-0.028-0.065l0.025-0.09l-0.04-0.06
		l-0.123-0.056l-0.115-0.126l-0.146-0.069l-0.06-0.116l-0.09-0.072l-0.031-0.062l-0.199-0.227l-0.213-0.177l-0.033-0.102
		l-0.009-0.139l0.084-0.085l0.045-0.075l-0.005-0.069l-0.012-0.05l-0.074-0.088l-0.283-0.052l-0.231-0.217l-0.013-0.165l-0.091-0.17
		l-0.001-0.11l-0.014-0.119l0.068-0.026l0.062,0.009l-0.006,0.048l0.02,0.085l0.072,0.064l0.069,0.028l0.063,0.062l0.047,0.019
		l0.048,0.005l-0.026-0.04l-0.027-0.026l-0.034-0.082l-0.064-0.106l-0.074-0.058l-0.037-0.107l-0.032-0.024l-0.02-0.04l0.071-0.046
		l0.097-0.034l0.13-0.009l0.37,0.016l0.079-0.027l0.065,0.009l0.048-0.004l-0.101-0.028l-0.056,0.009l-0.067-0.005l-0.132,0.005
		l-0.053-0.012l-0.059-0.033l-0.039-0.004l-0.122,0.058l-0.054-0.007l-0.129-0.062l-0.056-0.009l-0.091,0.036l-0.011,0.155
		l0.028,0.116l-0.054,0.012l-0.063-0.048l-0.097-0.028l-0.079-0.044l-0.113-0.08l-0.059-0.029l-0.067,0.066L57,51.984l0.033-0.078
		l-0.01-0.13l0.101,0.104l-0.031-0.074l-0.079-0.08l-0.059-0.028l-0.075-0.144l-0.169-0.087l-0.135-0.14L56.3,51.096l-0.019-0.204
		l-0.1-0.257l0.042-0.147l-0.005-0.104l-0.05-0.157l-0.051-0.085l-0.225-0.234l-0.215-0.157l-0.033-0.119l-0.015-0.12l0.047-0.107
		l0.041-0.113l0.03-0.029l0.012,0.012l-0.009,0.024l0.031,0.008l0.012-0.05l0.018-0.026l-0.032-0.003l0.003-0.016l0.019-0.031
		l0.067-0.147l-0.007-0.188l0.071-0.228l-0.003-0.076l-0.046-0.162l-0.045-0.097l-0.082-0.069l0.036-0.101l-0.003-0.096
		l-0.143-0.138l-0.055-0.181l-0.011-0.077l0.015-0.203l-0.038-0.086l-0.096-0.143l0.041-0.124l0.045-0.075l0.107-0.33l0.026-0.026
		l0.046,0.001l0.078-0.056l-0.036-0.013l-0.055,0.026l0.049-0.13l0.055-0.112l0.035-0.04l0.018-0.364l0.032-0.278l0.052-0.092
		l-0.018-0.094l0.02-0.128l-0.014-0.13l0.11-0.623l-0.014-0.075l0.034-0.101l-0.032-0.266l0.014-0.298l-0.028-0.037l-0.014-0.041
		l0.026-0.006l0.051,0.043l0.238-0.001l0.152-0.04l0.056,0.014l0.064,0.054l0.08,0.011l0.101-0.01l-0.03-0.013l-0.048-0.004
		l-0.106-0.05l-0.06-0.05l-0.185,0.003l-0.038-0.032l-0.208,0.032l-0.064-0.033l-0.113,0.022l0.028-0.094l-0.005-0.118l0.006-0.114
		l0.028,0.084l0.07,0.088l0.034-0.1l0.023-0.127l-0.069-0.049l-0.114-0.036l-0.041-0.118l0.27-0.1l-0.143-0.021l-0.056-0.046
		l-0.07-0.005L55.883,43l-0.022,0.045l-0.025-0.06l-0.007-0.072l-0.028-0.122l-0.11-0.196l-0.067-0.254l-0.084-0.125l-0.161-0.12
		l-0.042-0.07l-0.039-0.178l0.022-0.134l-0.03-0.094l0.077,0.005l0.204,0.074l0.253,0.059l0.077,0.042l0.123,0.032l0.682,0.048
		l0.044-0.004l0.088-0.031l0.038,0.004l0.1,0.069l0.05,0.009l0.065-0.004l0.048-0.013l0.082-0.048l0.011,0.018l-0.001,0.044
		l0.029,0.063l0.061,0.081l0.022,0.051l-0.121,0.143l-0.024,0.003l-0.003-0.049l-0.016-0.009l-0.23,0.241l-0.08,0.114l-0.008,0.052
		l0.003,0.03l0.032,0.008l0.073-0.012l0.109-0.048l0.005-0.01l-0.101,0.017L56.933,42.6l0.007-0.054l0.011-0.025l0.067-0.08
		l0.069-0.048l0.099-0.052l0.057-0.042l0.039-0.061l0.11-0.073l0.02-0.021l-0.005-0.06l0.007-0.012l0.053,0.008l0.022,0.104
		l-0.013,0.047l-0.094,0.056l-0.012,0.02l0.016,0.077l-0.014,0.008l-0.036-0.009l-0.011,0.005l0.089,0.084l0.029,0.065l0.003,0.058
		l-0.024,0.112l-0.026,0.018l-0.045-0.006l-0.059-0.035l-0.013,0.011l-0.047,0.087l-0.015-0.008l-0.03-0.103l-0.015-0.008
		L57.08,42.71l-0.036,0.045l-0.032,0.072l-0.04,0.034l0.114,0.008l0.102-0.015l0.082,0.034l0.028,0.001l0.075-0.033l0.023-0.023
		l0.062-0.109l0.031-0.019l0.046-0.001l0.045-0.016l0.066-0.06l0.003-0.023l-0.024-0.133l0.007-0.076l-0.013-0.024l-0.03-0.025
		l0.004-0.024l0.023-0.039l0.002-0.036l-0.02-0.032l0.009-0.037l0.063-0.078l0.012-0.034l0.076-0.078l-0.019-0.031l-0.056-0.038
		l-0.036-0.034l-0.036-0.052l-0.027-0.018l-0.009,0.008l0.038,0.086l-0.008,0.006l-0.099-0.046l-0.023-0.03l-0.012-0.039l0.009-0.03
		l0.053-0.03l0.064-0.01l-0.006-0.025l-0.079-0.08l-0.054-0.037l-0.041-0.018l-0.055-0.004l-0.024-0.013l-0.007-0.019l0.012-0.025
		l0.029-0.008l0.085,0.01l0.046-0.018l-0.004-0.032l-0.014-0.017l0.002-0.114l-0.032-0.093l-0.017-0.016L57.42,41.22l-0.019,0.013
		l-0.054,0.003l-0.033-0.03l-0.036-0.059l-0.067-0.14h0.103h0.426h0.426h0.427h0.426h0.427h0.426h0.426h0.427h0.426h0.426h0.427
		h0.426h0.427h0.426h0.426h0.427h0.426h0.426h0.427h0.426h0.427h0.426h0.426h0.427h0.426H68.4h0.426h0.426h0.427h0.426h0.426h0.427
		h0.426h0.427h0.426h0.426h0.427h0.426h0.427h0.426h0.426h0.427h0.426h0.426h0.427h0.426h0.427h0.426h0.426h0.427h0.426h0.426h0.427
		h0.426h0.427h0.426h0.426h0.427h0.426h0.427h0.426h0.426h0.427h0.426l0.236,0.001l0.004-0.211l0.003-0.167l0.216,0.021l0.064,0.03
		l0.021,0.014l-0.006,0.046l0.017,0.14L85.197,40.997z M359.452,38.627l-0.174,0.001l-0.354-0.163l-0.179-0.052l-0.102-0.057
		l0.047-0.012l0.216,0.04l0.176,0.088l0.098,0.058l0.112,0.049l0.122,0.02L359.452,38.627z M3.713,38.208L3.65,38.267L3.604,38.24
		l-0.018-0.081l0.035-0.02l0.099,0.058L3.713,38.208z M3.991,38.188L3.907,38.21l-0.111-0.045l0.01-0.051l0.122,0.043L3.991,38.188z
		 M2.121,38.35l-0.022,0.034l-0.024-0.001l-0.134-0.056l-0.019-0.018L2,38.283l0.023-0.021l-0.009-0.026l-0.059-0.037l-0.108-0.047
		l-0.042-0.034l0.027-0.021l0.051-0.013l0.163-0.002l0.088,0.058L2.2,38.16l0.155,0.014l-0.08,0.024l-0.046,0.024l-0.056,0.092
		L2.121,38.35z M2.852,38.283l-0.029,0.013l-0.053,0.01l-0.152-0.011l-0.093,0.004l-0.103,0.007l-0.077,0.017L2.33,38.299
		l0.002-0.02l0.333-0.055l0.078-0.029l0.047-0.036l0.044-0.068l0.034-0.021l0.022,0.001l0.047,0.027L2.92,38.133l-0.041,0.031
		l-0.014,0.029L2.852,38.283z M3.407,38.133l0.005,0.034l0.115-0.004l0.036,0.017v0.066l-0.015,0.018L3.53,38.269l-0.041-0.015
		l-0.047,0.034L3.229,38.37l-0.066-0.046l-0.125,0.072l0.088-0.186l0.1-0.029l0.038-0.021l-0.009-0.055l0.047-0.091l0.101,0.004
		l0.047,0.038L3.448,38.08L3.407,38.133z M358.575,38.084l-0.063,0.017l-0.033-0.044l-0.004-0.025l0.034-0.027l0.062,0.017
		l0.036,0.025L358.575,38.084z M359.729,38.095l-0.084,0.025l-0.095-0.014l-0.052-0.039l0.006-0.047l0.123-0.05l0.153,0.063
		L359.729,38.095z M3.978,37.998l-0.023,0.029l-0.098-0.031L3.822,37.97l-0.007-0.026l0.029-0.043L3.923,37.9l0.046,0.018
		l0.043,0.033l0.013,0.02L3.978,37.998z M357.415,38.117l-0.086,0.042l-0.068-0.043l-0.011-0.019l0.131-0.073l0.098-0.016
		l0.041-0.026l0.048-0.093l0.069-0.003l0.033,0.011l-0.017,0.043l-0.061,0.066l-0.002,0.046L357.415,38.117z M6.447,37.864
		l0.196,0.04L6.887,37.9l0.089,0.009l0.001,0.012l-0.156,0.016l-0.053-0.005l-0.136,0.022l-0.093,0.004l-0.212-0.021l-0.163,0.015
		l-0.043-0.006L6.07,37.928l-0.06-0.032l-0.003-0.019l0.054-0.008l0.145,0.027l0.015-0.014l0.122-0.026L6.447,37.864z M7.535,37.728
		l-0.074,0.015L7.38,37.727l0.038-0.053l0.038-0.028l0.074-0.034l0.087,0.015l0.069,0.043L7.535,37.728z M5.323,37.965l-0.537,0.041
		l-0.082-0.028l0.082-0.016l0.096-0.009l0.202-0.047l0.248-0.041l0.194-0.049l0.168-0.032l0.047-0.053l-0.148-0.027l-0.029-0.021
		l0.071-0.025l0.058-0.036l0.138-0.042l0.123,0.053l0.028,0.035L5.97,37.71l-0.025,0.044l-0.108,0.023L5.821,37.8l0.058,0.065
		l-0.223,0.057L5.323,37.965z M353.723,37.64l-0.062,0.003l-0.042-0.034l-0.214-0.014l0.021-0.033l0.092-0.013l0.146-0.053
		l0.118,0.009l-0.031,0.048L353.723,37.64z M9.267,37.419L9.203,37.45l-0.019-0.012l-0.011-0.039l0.036-0.03l0.109-0.067
		l0.074,0.013l0.023,0.017l-0.002,0.026L9.386,37.39l-0.035,0.017H9.308L9.267,37.419z M10.308,37.153l-0.016,0.04l-0.015,0.015
		l-0.154-0.022l-0.104,0.008l-0.011-0.024l0.009-0.021l0.162-0.032l0.066-0.001l0.044,0.017L10.308,37.153z M352.812,36.987
		l0.172,0.033l0.114-0.016l0.15,0.053l0.184,0.091l-0.041,0.017l-0.047,0.01l-0.045-0.001l-0.144,0.015l-0.079-0.003l-0.146,0.062
		l-0.155-0.045l-0.058-0.089l-0.127-0.021l-0.1-0.031l0.183-0.07L352.812,36.987z M12.036,36.655l-0.307,0.107L11.63,36.84
		l-0.076,0.076l-0.06,0.041l-0.043,0.007l-0.048,0.02l-0.102,0.053l-0.042,0.006l-0.325,0.123l-0.023,0.002l0.016-0.032l0.099-0.046
		l0.065-0.041l0.073-0.069l0.04-0.025l0.013-0.034l0.005-0.07l0.018-0.026l0.07-0.052l0.051-0.029l0.067-0.01l0.135,0.009
		l0.057-0.026l0.017-0.021l-0.034-0.018l-0.008-0.032l0.009-0.055l0.039-0.049l0.069-0.042l0.095-0.033l0.12-0.024l0.087-0.001
		l0.158,0.05l0.023,0.023l-0.038,0.05l-0.022,0.048L12.036,36.655z M13.79,36.277l-0.014,0.003l-0.025-0.025l-0.002-0.023
		l0.017-0.016l0.046-0.038l0.033-0.014l0.041-0.007l0.011,0.01l-0.036,0.046l-0.045,0.03L13.79,36.277z M13.385,36.099l0.043,0.048
		l0.075-0.031l0.054-0.041l0.043-0.053l0.028-0.021l0.036,0.028l0.105,0.038l-0.088,0.059l-0.17,0.088l-0.057,0.06l-0.003,0.025
		l0.164-0.02l0.046,0.003l0.03,0.021l-0.046,0.023l-0.089,0.022l-0.078,0.042l-0.18,0.073l-0.068,0.061l-0.081,0.023l-0.11,0.006
		l-0.193,0.039l-0.117,0.037L12.7,36.65l-0.037,0.009l-0.044-0.001l-0.048,0.016l-0.051,0.034l-0.042,0.016l-0.07,0.003
		l-0.037,0.014l-0.04-0.001l-0.112-0.04l-0.028-0.024l0.099-0.047l0.071-0.016l0.109-0.007l0.106-0.043l0.22-0.058l0.068-0.031
		l0.044-0.11l0.05-0.021l0.026-0.043l0.122,0.001l0.056,0.049l0.019,0.007l0.01-0.005l0.005-0.039l0.063-0.028l-0.036-0.02
		l-0.113-0.026l-0.083-0.012l-0.054,0.002l-0.045-0.014l-0.034-0.03l-0.015-0.03l0.003-0.03l0.028-0.033l0.052-0.036l0.06-0.021
		l0.129-0.015l0.115-0.024l0.061-0.004l0.046,0.01L13.385,36.099z M14.158,35.929l-0.037,0.018l-0.031,0.004l-0.023-0.01
		l-0.103,0.012l-0.021-0.007l-0.046-0.06l-0.003-0.031l0.018-0.024l0.047-0.022l0.075-0.02l0.073,0.004l0.129,0.055l0.06,0.032
		l0.011,0.02l-0.045,0.019L14.158,35.929z M14.439,35.863l-0.044,0.008l-0.01-0.011l-0.006-0.044l-0.033-0.069l0.064-0.026
		l0.039-0.006l0.017,0.011l0.046,0.052l0.046,0.014l0.034,0.011l-0.06,0.016L14.439,35.863z M17.446,35.599l-0.087,0.021
		l-0.092-0.022l-0.079-0.042l-0.009-0.051l0.176,0.033l0.037,0.015L17.446,35.599z M17.702,35.153l-0.024,0.005l-0.069-0.031
		l-0.025-0.023l-0.018-0.036l0.14-0.051l0.029-0.001l0.027,0.029l0.004,0.023l-0.039,0.065L17.702,35.153z M16.524,35.019
		l0.097,0.165l0.042,0.033l0.062,0.017l0.088,0.018l0.052,0.025l0.046,0.037l0.006,0.017l-0.275-0.067l-0.173,0.098l-0.052,0.012
		l-0.49,0.005l-0.098,0.018l-0.064,0.032l-0.112,0.089l-0.056,0.034l-0.06,0.021l-0.128,0.023l-0.153-0.003l-0.079-0.012
		l-0.043-0.042l-0.038-0.084v-0.023l0.016-0.04l0.137-0.055l0.045-0.029l0.176-0.189l0.051-0.026l0.055-0.006l0.15,0.013
		l0.129-0.055l0.277-0.084l0.061-0.01l0.2-0.002l0.054,0.013l0.042,0.024L16.524,35.019z M20.638,35.028l-0.032,0.005l-0.027-0.011
		l-0.037-0.057l-0.004-0.024l0.072,0.018L20.637,35L20.638,35.028z M20.485,34.848l-0.005,0.08l-0.015,0.012l-0.026-0.021
		l-0.057,0.024l-0.03-0.018l0.013-0.027l-0.005-0.022l0.042-0.002l0.01-0.039l-0.007-0.017l0.02-0.036l0.03-0.008L20.485,34.848z
		 M48.66,34.92l0.103,0.13l0.005,0.046l-0.098,0.016l-0.076-0.006l-0.04-0.015l-0.01-0.022l0.025-0.065l-0.051-0.039l-0.058-0.013
		l-0.052,0.022l-0.003-0.065l0.039-0.046l-0.022-0.064v-0.048l0.013-0.015l0.052,0.001l0.108,0.05L48.66,34.92z M20.127,34.871
		l-0.061,0.022l-0.019,0.028l-0.046,0.012l-0.039,0.023l-0.132,0.102l-0.057,0.019l0.063-0.087l0.01-0.028l0.002-0.019l-0.02-0.066
		l0.038,0.003l0.032-0.014l0.063-0.059l0.057-0.005l0.062-0.07l0.033-0.005l0.016,0.009l-0.027,0.043l0.059,0.039l-0.015,0.037
		L20.127,34.871z M47.138,35.106l0.024,0.013l0.025-0.009l0.041-0.036l0.071,0.007l0.052,0.012l0.032,0.015l-0.017,0.052
		l-0.013,0.084l-0.03,0.03l-0.029,0.042l-0.101-0.025l-0.083-0.054l-0.119-0.092l-0.066-0.066l-0.006-0.028l-0.042-0.021
		l-0.082-0.114l-0.046-0.091l-0.074-0.011l-0.093-0.025l-0.036-0.049l0.025-0.044l0.132-0.022l0.2,0.112l0.03,0.048l0.071,0.055
		l0.014,0.078l0.036,0.03L47.138,35.106z M19.671,34.662l-0.014,0.079l-0.138-0.05l-0.036-0.025l0.024-0.018l0.131-0.005
		L19.671,34.662z M19.315,34.685l0.015,0.001l0.031-0.008l0.065-0.056l0.021-0.003l0.001,0.018l-0.031,0.055l0.052,0.075
		l0.048,0.036l-0.005,0.012l-0.121,0.026l-0.093-0.019l-0.049,0.007l-0.044,0.026l-0.03-0.029l-0.022-0.137l0.007-0.024l0.051-0.048
		l0.065-0.022l0.028,0.007l0.024,0.019l0.006,0.02L19.315,34.685z M46.695,34.456l0.022,0.028l0.001,0.018l-0.144,0.067
		l-0.003,0.013l-0.034,0.041l-0.03,0.015l-0.054,0.045l-0.103,0.048l0.015-0.144l-0.102-0.084l0.103-0.042l0.067,0.012l0.112,0.005
		l0.109-0.037L46.695,34.456z M24.434,34.179l-0.039,0.031l-0.076-0.002l-0.042-0.01l-0.014-0.028l0.116-0.083l0.027-0.011
		l0.021,0.003l0.009,0.034L24.434,34.179z M49.021,34.511l-0.035,0.11l-0.069,0.112l-0.105,0.061l-0.074-0.014l-0.054-0.049
		l-0.051,0.003l-0.054-0.01l-0.03-0.04l0.029-0.052l-0.026-0.041l-0.027,0.036l-0.047,0.032l-0.119,0.042l-0.083,0.081l-0.039,0.052
		l-0.048-0.057l-0.031-0.136l-0.004-0.057l0.087-0.087l0.111-0.083l0.023-0.246l0.356-0.123l0.033,0.006l0.115,0.092l0.123,0.129
		l0.032,0.058l0.001,0.102L49.021,34.511z M46.434,33.661l0.189,0.021l0.174-0.002l0.059,0.041l0.04,0.044l0.022,0.041l0.007,0.038
		l-0.005,0.027L46.899,33.9l0.004,0.01l0.339,0.095l0.16,0.1l0.064,0.053l0.037,0.044l0.067,0.111l0.141,0.129l0.074,0.039
		l0.042,0.038l-0.023,0.002l-0.1-0.028l-0.215-0.087l-0.018,0.004l-0.019,0.046l-0.034,0.041l-0.049,0.03l0.039,0.009l0.174-0.019
		l0.146,0.084l0.057,0.015l0.055,0.061l0.002,0.023l-0.032,0.045l-0.025,0.018l0.008,0.013l0.041,0.006l0.161-0.013l0.029,0.022
		L48,34.966l0.022,0.065v0.029l-0.019,0.039v0.032l0.014,0.034l0.002,0.03l-0.041,0.079l-0.043,0.013h-0.069l-0.055-0.022
		l-0.077-0.067l-0.075-0.105l-0.029-0.015l-0.099-0.016l-0.017-0.012l-0.063-0.003l-0.045-0.043l0.006-0.056l-0.039-0.058
		l0.005-0.026l-0.043-0.011l-0.037,0.016l0.019,0.057l-0.021,0.044l-0.078-0.018l-0.131-0.14l-0.148-0.113l-0.058-0.027l0.016-0.032
		l0.073-0.018l0.059,0.002l0.012-0.02l-0.123-0.108l0.004-0.031l0.045-0.055l-0.057-0.023l-0.154,0.018l-0.054-0.012l-0.045-0.044
		l-0.026-0.038l-0.134-0.007l-0.05,0.005l-0.087-0.058l-0.04-0.036l0.016-0.019l0.08-0.033l0.047,0.005l0.09,0.035l0.035-0.001
		l0.09-0.047l0.014-0.041l0.066-0.035l-0.01-0.036l-0.037-0.062l-0.082-0.017l-0.168,0.037l-0.145,0.056l-0.059-0.022l-0.012-0.034
		l0.156-0.095l0.068-0.052l-0.013-0.031l-0.05-0.039l-0.005-0.1L46.434,33.661z M47.22,33.753l-0.051,0.003l-0.06-0.015
		l-0.144-0.082l-0.003-0.024l0.021-0.027l0.082-0.05l0.033-0.012l0.196,0.006l0.063,0.013l0.014,0.023l-0.003,0.024l-0.021,0.024
		l-0.005,0.025l0.011,0.026l-0.022,0.026L47.22,33.753z M47.888,33.891l-0.021,0.166l-0.04-0.01H47.79l-0.077,0.024l-0.082-0.011
		l-0.038-0.018l-0.014-0.022l0.015-0.049l-0.045-0.027l-0.152-0.01l-0.057-0.012l-0.031-0.052l-0.008-0.068l0.024-0.026l0.076-0.018
		l0.06-0.082l0.033-0.011l0.126-0.164l0.064,0.012l0.11,0.099l0.139,0.144L47.888,33.891z M25.317,33.564l-0.068,0.024l-0.023-0.008
		l-0.003-0.02l0.016-0.031l0.032-0.031l0.105-0.059l0.106-0.04l0.055,0.003l0.018,0.025l-0.066,0.052L25.317,33.564z M25.791,33.485
		l-0.049,0.002l-0.074-0.026l0.01-0.032l0.105-0.038l0.107,0.006l0.008,0.021l-0.005,0.024l-0.009,0.014L25.85,33.47L25.791,33.485z
		 M10.245,33.365l0.131,0.02l0.074-0.013l0.064,0.01l0.012,0.024l-0.113,0.052l-0.046-0.004l-0.133-0.062L10.245,33.365z
		 M47.253,33.474l-0.011,0.015l-0.127-0.001l-0.046-0.012l-0.017-0.043l0.012-0.04l0.029-0.03l0.036-0.059l0.028-0.099l0.187,0.11
		l0.057,0.049l0.031,0.06l-0.066,0.023l-0.08,0.01L47.253,33.474z M46.01,33.155l0.065,0.069l0.094-0.005l0.053,0.052l0.04,0.079
		l-0.029,0.05l-0.042-0.011l-0.046,0.029l-0.029,0.097l0.014,0.096l-0.015,0.097l-0.054,0.098l-0.011,0.066l-0.021,0.02
		l-0.023,0.007l-0.03-0.018l-0.043-0.014l-0.055,0.056H45.81l-0.055-0.126l0.05-0.211l0.111-0.042l-0.066-0.058l-0.14-0.066
		l0.012-0.037l-0.106-0.107l-0.007-0.025l0.017-0.09l0.1-0.079l0.131-0.014l0.091,0.034l0.051,0.029L46.01,33.155z M46.634,32.997
		l0.066,0.031l0.036-0.033l0.068,0.002l0.125,0.029l0.075,0.044l0.042,0.05l0.003,0.03l-0.012,0.067l0.009,0.07l-0.005,0.036
		l-0.017,0.03l-0.028,0.023l-0.031,0.003l-0.097-0.062l-0.112-0.113l-0.085-0.034l-0.003,0.012l0.023,0.032l0.069,0.06l0.013,0.037
		l0.049,0.044l0.021,0.034l0.013,0.044l-0.001,0.039l-0.013,0.033l-0.023,0.021l-0.032,0.009l-0.17-0.009l-0.101,0.022l-0.119-0.012
		l-0.028-0.02l-0.018-0.033l-0.009-0.079l-0.03-0.114l0.007-0.088l-0.077-0.079l-0.065-0.047l-0.094-0.043l-0.062-0.043l0.017-0.033
		l0.096-0.026l0.158,0.006L46.634,32.997z M26.993,32.875l-0.127,0.032l-0.023-0.001l-0.078,0.065L26.705,33l-0.08-0.052l0.021-0.08
		l0.069-0.053l0.35,0.018l0.027,0.015v0.012l-0.025,0.011L26.993,32.875z M9.839,32.816l-0.103,0.047l-0.094-0.017l-0.028-0.035
		l-0.001-0.014l0.271-0.039L9.839,32.816z M45.03,32.649l0.085,0.109l0.062,0.085l0.054,0.103l0.092,0.212l0.043,0.08l0.013,0.044
		l0.01,0.115l-0.013,0.024l-0.028,0.023l-0.005,0.033l0.025,0.087l0.002,0.134l-0.024,0.075l-0.028,0.011l-0.068-0.025l-0.056-0.04
		l-0.042-0.042l-0.102-0.134l-0.031-0.062l-0.001-0.045l0.015-0.032l0.034-0.02l0.058-0.054l-0.008-0.009l-0.045,0.012l-0.09,0.007
		l-0.079-0.043l-0.062-0.022l0.012-0.077l-0.016-0.022L44.715,33.2l-0.046-0.022l-0.01-0.029l0.003-0.043l0.023-0.038l0.115-0.095
		l-0.011-0.018l-0.056-0.004l-0.074-0.033l-0.034-0.106l-0.08-0.061l-0.047,0.005l-0.107,0.173l-0.053,0.037l-0.15,0.024l0.03-0.048
		l0.014-0.042l-0.053-0.13l-0.002-0.05l0.036-0.037l0.106-0.016l0.056-0.021l0.044-0.036l0.011-0.035l0.083-0.091l0.038-0.018
		l0.103,0.001l0.215,0.101l0.066,0.015L45.03,32.649z M26.759,32.15l-0.028,0.028l-0.026-0.007l-0.056-0.033l-0.114-0.047
		l-0.052-0.033l-0.003-0.014l0.039-0.015l0.134,0.038l0.057,0.035L26.759,32.15z M27.102,32.176l0.007,0.055l0.041-0.007
		l0.154-0.056l0.08-0.017l0.104-0.002l0.083,0.025l0.017,0.02l-0.007,0.024l-0.066,0.048l0.002,0.031l0.072,0.057l0.174,0.031
		l0.022,0.017l-0.001,0.021l-0.121,0.095l-0.044,0.022l-0.031,0.005l-0.219-0.017l-0.2-0.031l-0.081-0.005l-0.029,0.01l-0.056,0.029
		l0.04,0.009l0.176,0.007l0.061,0.042l0.027,0.031l0.014,0.035l-0.035,0.014l-0.075,0.01h-0.09l-0.111,0.039l-0.062,0.044
		l-0.222,0.012l-0.17,0.059l-0.06,0.029l-0.02,0.035l-0.064,0.025l-0.145,0.026l0.086,0.021l0.014,0.021l0.002,0.026l-0.012,0.023
		l-0.114,0.103l-0.216,0.084l-0.054-0.004l-0.024-0.01l-0.019-0.017l-0.001-0.016l0.278-0.168l-0.011-0.009l-0.076-0.005
		l-0.119-0.047l-0.085,0.03l-0.019-0.001l0.023-0.04l0.055-0.047l-0.01-0.014l-0.03-0.012l-0.07-0.007l-0.109-0.002l-0.08,0.011
		l-0.053,0.025l-0.004,0.01l0.111-0.002l0.031,0.012l0.03,0.024l0.018,0.027l0.007,0.031l-0.024,0.041l-0.053,0.052l-0.078-0.009
		l-0.16-0.116l-0.07-0.169l-0.137-0.129l-0.006-0.031l0.039-0.08l0.138-0.113l0.148-0.031l0.106-0.048l0.102-0.014l0.063,0.001
		l0.086,0.02l0.035,0.044l-0.021,0.02l0.008,0.011l0.061,0.026l0.065,0.091l0.077,0.081l0.05,0.033l0.067,0.02l-0.069-0.062
		l-0.041-0.076l-0.02-0.153l-0.02-0.04l0.039-0.011l0.109,0.006l-0.003-0.022l-0.115-0.052l-0.071-0.042l-0.027-0.034l0.002-0.029
		l0.062-0.043l0.036-0.012l0.037-0.005l0.073,0.009l0.033,0.013l0.094,0.097l0.045,0.03h0.036l0.034-0.016l0.031-0.032l0.033-0.019
		l0.033-0.007l0.105,0.015l0.035-0.006L26.8,32.18l-0.001-0.043l0.026-0.016l0.006-0.032l-0.057-0.047l0.066-0.014l0.217,0.036
		l0.093,0.039L27.102,32.176z M44.27,31.756l0.143,0.097l0.001,0.023l-0.029,0.067l-0.078,0.018l0.022,0.027l0.058,0.02l0.041-0.017
		l0.151-0.093l0.046-0.02l0.028-0.002l0.184,0.028l0.161,0.045l0.047,0.036l0.027,0.062l-0.043,0.136l-0.132,0.023l-0.062-0.002
		l-0.066-0.02l-0.107,0.047l0.088,0.036l0.271,0.009l0.082,0.076l0.024,0.059l-0.059,0.108l-0.153-0.03l-0.135-0.063l-0.278-0.088
		l-0.066-0.004l-0.045,0.015l-0.012,0.054l0.003,0.117l-0.074,0.06l-0.219-0.027l-0.086-0.088l-0.08-0.14l-0.301-0.165l-0.082-0.033
		l-0.109-0.099l0.044-0.079l0.013-0.045l0.058-0.012l0.084-0.035l0.048-0.076l0.076,0.062l0.102,0.059l0.002-0.056l0.048-0.044
		l0.1,0.001l0.047-0.009l0.065-0.041l0.095-0.021L44.27,31.756z M45.687,31.771l-0.007,0.025l-0.136-0.003l-0.138-0.036
		l-0.068-0.048l0.014-0.021l0.128-0.021l0.121,0.046L45.687,31.771z M45.32,31.838l0.254,0.023l0.186-0.005l0.17,0.149l0.104,0.121
		l0.062,0.085l0.035,0.081l0.046,0.079l-0.004,0.011l-0.098-0.053l-0.071-0.107l-0.036-0.043l-0.035-0.019l-0.038-0.039
		l-0.073-0.103l-0.002-0.029l-0.033-0.027l-0.037-0.011l-0.042,0.004l-0.015,0.011l0.007,0.071l0.033,0.078l0.183,0.173l0.123,0.098
		l0.024,0.032l0.016,0.09l-0.053,0.041l0.065,0.082l-0.002,0.016l-0.014,0.016L45.9,32.7l-0.16,0.153l-0.175,0.09l-0.081,0.014
		l-0.039-0.015l-0.037-0.034l-0.021-0.046l-0.007-0.058l0.044-0.036l0.087-0.188l0.002-0.062l-0.108-0.086l-0.065-0.07l-0.035-0.098
		l-0.059-0.259l-0.027-0.083l-0.039-0.069l-0.05-0.055l-0.038-0.061l-0.025-0.066l0.01-0.026l0.086,0.035l0.104,0.095L45.32,31.838z
		 M27.583,31.64l0.036,0.008l0.038-0.06l0.027-0.001l0.118,0.05l0.073-0.011l0.046,0.062l0.042,0.005l0.039-0.007l0.024,0.004
		l-0.009,0.066l-0.086,0.066l-0.04,0.017l-0.056-0.017l-0.022-0.007l-0.037-0.029l-0.028-0.037l-0.016-0.001l-0.066,0.044
		l0.001,0.021l0.028,0.033l-0.004,0.02l-0.072,0.01l-0.071-0.005l-0.086,0.028l-0.02-0.018l-0.013-0.049l-0.027,0.005l-0.041,0.061
		l-0.044,0.039l-0.081,0.032l-0.018,0.015l-0.059,0.002l-0.087,0.02l-0.055-0.003l-0.322-0.066l-0.076-0.024l0.265-0.152l0.14-0.058
		l0.081,0.003l0.08,0.018l0.043-0.003l0.003-0.067l-0.075-0.05l0.003-0.02l0.166-0.035l0.063,0.005l0.068,0.018l0.066,0.028
		L27.583,31.64z M27.514,31.515l-0.03,0.006l-0.073-0.03l-0.048-0.033l0.032-0.024l0.142-0.052l0.067-0.001l0.028,0.008l0.011,0.016
		l-0.005,0.024l-0.031,0.03L27.514,31.515z M19.081,31.423l-0.073,0.016l-0.078-0.008l-0.062-0.099l0.047-0.003l0.099-0.065
		l0.217-0.053l0.054-0.006L19.081,31.423z M35.434,30.182l-0.048,0.005l0.072-0.065l0.097-0.073l0.091-0.045l0.118-0.019
		l-0.013,0.033l-0.154,0.061L35.434,30.182z M31.978,29.935l-0.052,0.03l-0.198-0.018l0.041-0.062l0.151-0.038l0.166,0.06
		L31.978,29.935z M32.264,30.187l-0.11,0.014l-0.026-0.029l0.058-0.074l0.046-0.042l0.034-0.01l0.127-0.083l0.141-0.06l0.129-0.088
		l0.132-0.126l0.024-0.047l0.061-0.005l0.1,0.031l0.062,0.043l-0.029,0.035l-0.331,0.179l-0.028,0.023l-0.031,0.061l-0.027,0.021
		l-0.044,0.01l-0.031,0.026l-0.02,0.044l-0.041,0.022l-0.062,0.002l-0.043,0.012l-0.024,0.022L32.264,30.187z M13.865,29.616
		l0.091,0.05l0.049,0.003l0.154-0.015l0.057,0.01l0.054,0.022l0.034,0.032l0.007,0.058l-0.025,0.051l0.007,0.072l-0.005,0.032
		l0.081,0.041l0.026,0.055l0.013,0.06l-0.177,0.02l-0.178,0.003L13.9,30.15l-0.031,0.03l0.024,0.045l-0.042,0.011l-0.039-0.01
		l-0.074-0.041l-0.081-0.019l-0.285-0.031l-0.357-0.119l-0.154-0.025l-0.156-0.087l-0.141-0.111l0.092-0.017l0.092-0.01l0.416,0.017
		l0.052-0.079l0.053-0.02l0.132-0.023l0.123-0.044l0.056,0.001l0.056,0.017l0.117-0.026l0.062-0.006L13.865,29.616z M34.881,29.663
		l-0.031,0.024l-0.088-0.008l-0.046-0.016l0.156-0.064l0.026,0.013L34.881,29.663z M33.606,29.55l0.022,0.028l0.192-0.007
		l0.056,0.005l0.022,0.013l-0.026,0.018l-0.074,0.025l-0.217,0.043l-0.176,0.057l-0.023-0.006l-0.032-0.062l-0.033-0.025
		l-0.02-0.035v-0.013l0.033-0.024l0.064-0.035l0.046-0.013L33.606,29.55z M32.342,29.55l-0.001,0.026l-0.031,0.025l0.03,0.047
		l-0.052,0.079l-0.02,0.051L32.24,29.81l-0.028,0.012l-0.028-0.007l-0.006-0.018l0.017-0.028l-0.066,0.001l-0.02-0.069l0.036-0.022
		l0.013-0.03l0.004-0.02l0.043-0.089l0.016-0.006l0.005,0.021l0.014,0.006l0.023-0.008l0.034-0.04l0.014-0.004L32.342,29.55z
		 M27.979,29.638l-0.048,0.004l0.064-0.049l0.045-0.097l0.061,0.014l0.012,0.017l-0.1,0.099L27.979,29.638z M7.258,29.543
		l0.216,0.065l0.138-0.006l0.11,0.054l0.046,0.045l-0.165-0.032l-0.239,0.002l-0.322-0.134l-0.116-0.03l0.026-0.075l0.124-0.039
		l0.064,0.101L7.258,29.543z M32.069,29.174l-0.126,0.008l-0.058-0.013l-0.009-0.013l0.024-0.051l-0.002-0.021l0.064-0.008
		l0.074,0.024l0.021,0.025L32.069,29.174z M8.537,26.36l0.015,0.024l0.105-0.004l0.146,0.011l0.162,0.024l0.16-0.009l0.202-0.075
		l0.121-0.019l0.122-0.011l0.131,0.018l0.128,0.04l0.049,0.023l0.04,0.041l0.026,0.05l0.039,0.035l0.24,0.044l0.153,0.017
		l0.037,0.024l0.032,0.034l0.127,0.025l0.133-0.01l0.074,0.009l0.225,0.002l0.28,0.036l-0.045,0.097l-0.091,0.043l-0.257-0.014
		l-0.256,0.014l-0.106,0.05l-0.088,0.063l-0.012,0.061l-0.052,0.028l-0.053,0.013L10.28,27.01l-0.058-0.104l-0.041-0.028
		l-0.044-0.018l-0.125-0.033l-0.127-0.021L9.81,26.804l-0.053-0.036l-0.03-0.052l-0.051-0.027l-0.1-0.038l-0.103-0.03l-0.321-0.065
		l-0.106-0.009l-0.107,0.007l-0.115,0.03l-0.111,0.044l-0.114,0.033l-0.118,0.007l-0.113-0.019l-0.106-0.043l-0.053-0.031
		l-0.028-0.052l0.001-0.053l0.014-0.051l0.058-0.122l0.1-0.024L8.537,26.36z M13.89,23.773l-0.039,0.005l0.003-0.015l0.113-0.041
		l0.211-0.05l-0.008,0.011l-0.112,0.039L13.89,23.773z M24.026,19.158l0.102,0.007l0.164-0.022l0.129-0.037l0.266-0.121l0.083-0.067
		l0.063-0.017l0.223,0.016l0.126,0.035l0.144,0.061l-0.052,0.059l-0.059,0.034l0.186,0.046l0.207,0.01l0.197,0.037l0.277-0.076
		l0.217-0.017l0.203,0.003l0.265-0.042l0.448,0.057l0.114-0.015l0.18,0.01l0.191,0.034l0.067,0.037l-0.204,0.077l-0.034,0.079
		l0.072,0.034l0.129,0.005l0.017,0.047l0.08,0.011l0.404-0.003L28.2,19.462l-0.02,0.027l-0.125,0.059l0.72,0.033l0.097-0.033
		l0.149-0.013l0.316-0.045l0.119,0.02l0.141,0.046l0.129,0.01l0.121-0.01l0.283-0.066l0.326-0.003l0.133,0.022l0.142-0.01
		l0.424,0.076l0.157,0.009l0.209,0.098l0.108,0.003l0.122-0.042l0.106,0.002l0.104,0.039l0.169,0.013l0.079,0.062l0.086,0.023
		l0.642,0.047l0.318-0.022l0.464,0.006l0.223,0.03l0.235-0.004l0.383,0.109l0.203,0.017l0.04,0.025l0.578,0.027l0.202-0.057
		l0.353-0.015l0.318-0.048l0.18,0.001l0.209,0.011l0.081-0.005l0.058-0.021l0.51,0.082l0.286,0.094l0.125,0.07l0.598,0.1
		l0.173,0.055l0.118,0.062l0.069,0.006l0.049-0.018l0.209,0.006l0.079,0.008v0.292v0.293v0.292v0.292v0.293v0.292v0.293v0.292v0.292
		v0.292v0.292v0.293v0.292v0.292v0.292v0.292v0.293v0.292v0.292v0.292v0.293v0.292v0.292v0.292v0.292v0.293v0.292v0.292v0.292v0.292
		v0.293V29.7l0.239,0.041l0.238,0.041l0.072-0.082l0.256,0.063l0.224,0.054l0.142-0.07l0.155-0.075l0.208-0.006l0.233-0.006
		l0.156-0.004v0.065l-0.058,0.106l-0.048,0.089l0.142,0.091l0.174,0.047l0.164,0.045l0.073,0.123l0.178,0.095l0.136,0.072
		l0.131,0.069l0.186,0.099l0.13,0.069l0.174,0.093l0.104,0.055l0.049,0.107l0.06,0.128l-0.037,0.076l0.082,0.012l0.161-0.085
		l0.152-0.053l0.187-0.065l0.126-0.044l0.234-0.002l0.112-0.128l0.001-0.179l0.118,0.003l0.07-0.024l0.031-0.053l-0.075-0.072
		l0.225-0.033l0.162-0.025l0.232-0.066l0.227-0.064l0.108,0.05l0.107,0.048l0.21,0.116l0.014,0.028l-0.014,0.055l-0.02,0.055
		l0.127,0.153l0.037,0.017l0.105,0.021l0.125,0.051l0.055,0.044l0.181,0.07l0.031,0.029l0.017,0.047l0.029,0.04l0.034,0.029
		l0.033,0.042l0.078,0.048l0.15,0.054l0.103,0.038l0.145,0.053l0.147,0.108l0.128,0.094l0.145,0.092l-0.022,0.074l0.148,0.114
		l0.155,0.145l0.119,0.129l0.084,0.072l0.101,0.104l0.124,0.128L47.45,32.5l0.108,0.093l0.14,0.131l0.07,0.077l-0.047,0.054
		l-0.059,0.066l0.181,0.031l0.125,0.021l-0.031,0.074l-0.041,0.096l0.141,0.038l0.097,0.026l-0.02,0.051l0.053,0.057l0.009,0.095
		l0.172-0.006l0.077-0.003l0.103,0.042l0.136,0.056l0.137,0.052l0.116,0.044l0.153,0.026l0.188,0.038l0.093,0.077l0.172,0.033
		l0.064,0.108l0.198,0.04l0.117-0.026l0.042,0.044l0.033,0.05l0.009,0.064l-0.011,0.063l-0.05,0.052l-0.037,0.056l-0.025,0.062
		l-0.01,0.065l0.007,0.069l0.02,0.061l0.061,0.112l0.02,0.068l0.002,0.046l-0.135,0.161l-0.047,0.077l0.005,0.034l-0.099,0.08
		l-0.18,0.112l-0.082,0.064l-0.041-0.021l-0.234-0.017l-0.085-0.142L49.02,34.94l-0.068-0.097l0.002-0.022l0.062-0.064l0.234-0.053
		l0.002-0.021l-0.087-0.014l-0.021-0.023l-0.024-0.105l0.007-0.091l-0.007-0.061l-0.039-0.124l-0.058-0.076l-0.151-0.148
		l-0.012-0.038l0.066-0.046l0.041-0.044l-0.255,0.076l-0.347,0.08l-0.149,0.055l-0.031,0.023l-0.011,0.019l0.027,0.052l-0.004,0.017
		l-0.031,0.031l-0.035,0.088l-0.076,0.093l-0.038,0.019l-0.136-0.035l-0.036-0.03l-0.068-0.121l0.015-0.032l0.05-0.028l0.067-0.059
		l0.085-0.09l0.162-0.23l0.106-0.001l0.187-0.046l-0.293-0.023l-0.044-0.012l-0.039-0.031l-0.035-0.051l-0.06-0.056l-0.111-0.02
		l-0.049-0.021l-0.074-0.068l-0.049-0.031l-0.027-0.038l-0.005-0.045l-0.021-0.023l-0.076-0.008l-0.042-0.016l-0.011-0.116
		l-0.153-0.03l-0.062-0.026l-0.1-0.073L47.17,33.07l-0.009-0.029l0.025-0.081l-0.011-0.015l-0.088,0.009l-0.553-0.125l0.029-0.165
		l-0.102-0.217l-0.11-0.088l0.022-0.035l0.024-0.018h0.049l0.212,0.064l0.199,0.076l0.026-0.011l-0.319-0.161l-0.079-0.048
		l-0.02-0.058l-0.001-0.031l0.025-0.016l0.299,0.014l0.018-0.012l-0.303-0.047l-0.062,0.001l-0.067,0.067l-0.031,0.016l-0.065-0.003
		l-0.022-0.011l-0.077-0.081l-0.073-0.057l-0.137-0.079l-0.026-0.056l-0.006-0.083l0.018-0.078l0.111-0.179l0.045-0.031l0.012-0.019
		l-0.034,0.003l-0.033,0.017l-0.092,0.083l-0.095,0.136l-0.078,0.046l-0.049-0.011l-0.073-0.056l-0.154-0.067l-0.179-0.018
		l-0.112-0.069l-0.167-0.192l-0.022-0.096l-0.021-0.024l-0.09-0.031l-0.056-0.046l-0.085-0.234l-0.113-0.162l-0.028-0.086
		l0.009-0.085l-0.015-0.009l-0.039,0.066l-0.01,0.035l-0.071,0.009l0.067,0.067l0.017,0.034l-0.034-0.003l-0.068,0.009l0.116,0.114
		l0.052,0.178l0.077,0.132l0.05,0.107l0.022,0.081l0.033,0.078l0.09,0.171l0.012,0.034l-0.01,0.028l-0.03,0.033l-0.052,0.013
		l-0.161-0.023l-0.06-0.042l-0.087-0.078l-0.122-0.036l-0.301,0.018l-0.025-0.006l0.002-0.064l0.034-0.113l-0.028-0.046
		l-0.155-0.166l0.002-0.033l0.217-0.076l-0.106-0.006l-0.085,0.03l-0.032-0.019L43.899,31l-0.033-0.04l-0.016-0.008l-0.009,0.101
		l0.035,0.054l0.006,0.03l-0.006,0.043l-0.023,0.031l-0.039,0.019l-0.04,0.005l-0.073-0.022l-0.081-0.04l-0.071-0.019l-0.027-0.017
		l-0.033-0.044l-0.055-0.034l-0.265-0.043l-0.158-0.05l-0.013,0.013l0.049,0.054l0.005,0.032l-0.04,0.01l-0.071,0.051l0.021,0.007
		l0.075-0.017l0.084,0.002l0.139,0.032l0.126,0.041l0.046,0.023l0.019,0.034l0.015,0.012l0.124,0.039l0.006,0.021l-0.08,0.062
		l0.164-0.006l0.095,0.022l0.122,0.096l0.042,0.053l0.005,0.069l-0.025,0.02L43.87,31.65l-0.332,0.022l-0.121,0.083l-0.024,0.001
		l-0.092-0.022l-0.166-0.066l-0.207-0.063l-0.472-0.186l-0.013-0.009l-0.008-0.036l-0.032-0.018l-0.064-0.016l-0.089-0.047
		l-0.114-0.079l-0.07-0.061l-0.027-0.044l-0.066-0.05l-0.214-0.106l-0.111-0.04l-0.099-0.023l-0.086-0.005l-0.023-0.014l0.039-0.023
		l0.006-0.014l-0.189-0.022l-0.18-0.049l-0.457-0.139l-0.236-0.086l-0.137-0.042l-0.059-0.023l-0.026-0.019l0.033-0.02l0.092-0.021
		l0.062-0.023l0.099-0.088l0.007-0.028l-0.053-0.064l-0.023-0.058l0.001-0.033l0.012-0.031l0.015-0.021l0.042-0.021l0.029-0.01
		l0.036,0.007l0.116,0.08l0.016,0.029l-0.005,0.109l0.033,0.128l0.011-0.009l0.01-0.043l0.007-0.08l0.013-0.039l0.025-0.038
		l0.042-0.02l0.131,0.012l0.06-0.007l-0.255-0.058l-0.159-0.108l-0.029-0.011l-0.088-0.005l-0.093,0.044l-0.238,0.142l-0.067,0.025
		l-0.3,0.079l-0.203,0.016l-0.228-0.012l-0.195-0.026l-0.489-0.125l-0.076-0.029l0.113-0.077l0.005-0.024l-0.04-0.079l-0.032-0.022
		l-0.047-0.013l-0.013,0.009v0.023l0.012,0.044l-0.037,0.023l-0.083,0.024l-0.14,0.025l-0.434-0.063l-0.445-0.053l-0.397-0.011
		l-0.56,0.042l-0.299,0.042l-0.175,0.004l-0.167-0.007l-0.014-0.03l0.077-0.017l-0.005-0.021l-0.096-0.067l-0.148-0.04l-0.197-0.014
		l-0.113-0.02l-0.029-0.024l-0.069-0.024l-0.111-0.022l-0.049-0.04l0.039-0.124l0.038-0.075l0.037-0.051l0.096-0.084l-0.033,0.006
		l-0.139,0.062l-0.121,0.064l-0.112,0.083l-0.067,0.039l-0.085,0.035l-0.134-0.009l-0.181-0.052l-0.155-0.027l-0.13-0.001
		l-0.051-0.009l0.088-0.047l0.051-0.037l0.07-0.06l0.015-0.029l-0.474-0.01l-0.017-0.031l-0.001-0.024l-0.015-0.019l-0.069-0.014
		l-0.096,0.011l-0.156,0.037l-0.067-0.028l0.024-0.016l0.05-0.012l0.104-0.054l-0.14-0.028l-0.072-0.032l-0.034-0.026l0.002-0.096
		l0.037-0.061l0.314-0.059l-0.099-0.023l-0.199,0.008l-0.133,0.05l-0.158,0.073l-0.106,0.027l-0.054-0.018l-0.072-0.007
		l-0.089,0.006l-0.06,0.019l-0.031,0.031l-0.035,0.021l-0.04,0.012l-0.03-0.004l-0.042-0.032l-0.09-0.02l-0.044-0.025l-0.026,0.016
		l-0.03,0.046l-0.033,0.023l-0.152,0.025l-0.083-0.005l-0.1-0.058l-0.014-0.021l0.034-0.05l0.219-0.2l-0.022,0.001l-0.071,0.032
		l-0.141,0.079l-0.063,0.024l-0.109,0.003l-0.051-0.008l-0.061,0.006l-0.072,0.022l-0.047,0.023l-0.022,0.026l0.015,0.004
		l0.109-0.029l0.061-0.008l0.017,0.014l-0.084,0.09l-0.051,0.086l-0.049,0.022l-0.078-0.004l-0.085,0.009l-0.001,0.024l0.158,0.069
		l0.058,0.01l0.073,0.024l0.011,0.025l-0.027,0.066l-0.021,0.026l-0.033,0.013l-0.13-0.002l-0.042,0.007l-0.087,0.041l-0.043,0.035
		l0.016,0.003l0.075-0.029l0.109-0.015l0.144-0.002l0.107-0.015l0.07-0.028l0.068,0.008l0.067,0.044l0.02,0.038l-0.027,0.033
		l-0.055,0.024l-0.083,0.014l-0.053,0.021l-0.022,0.028l-0.012,0.042l-0.003,0.055l0.021,0.1l-0.016,0.014l-0.031,0.007
		l-0.046,0.002l-0.042,0.023l-0.098,0.133l-0.034,0.014l-0.041-0.014l-0.036,0.002l-0.032,0.017l-0.07,0.013l-0.107,0.009
		l-0.092-0.003l-0.161-0.029L30.93,30l-0.052-0.034l-0.145,0.036l-0.038-0.016l-0.09-0.092l-0.02,0.006l-0.017,0.099l-0.028,0.035
		l-0.089,0.072l-0.049,0.124l-0.015,0.003l-0.017-0.018l-0.055-0.11l-0.029-0.025l-0.081,0.064l-0.009,0.023l0.022,0.083
		l-0.019,0.012l-0.164-0.044l-0.04-0.002l-0.011,0.007l0.056,0.064l-0.007,0.023l-0.231,0.123l-0.06-0.004l-0.039-0.012
		l-0.041,0.002l-0.147,0.046l-0.041-0.002l-0.056-0.028l-0.025,0.002l-0.014,0.028l-0.002,0.055l-0.054,0.053l-0.176,0.085
		l-0.046,0.039l-0.036,0.054l-0.026,0.005l-0.103-0.034l-0.119-0.023l-0.016,0.011l0.036,0.033l-0.008,0.02l-0.051,0.008
		l-0.066-0.003l-0.078-0.014l-0.111,0.015l-0.142,0.044l-0.119-0.002l-0.166-0.071l-0.046-0.005l-0.014-0.02l0.032-0.058
		l0.047-0.043l0.035-0.021l0.157-0.056l0.18-0.021l0.113-0.033l0.138-0.07l0.073-0.052l0.143-0.134l-0.011-0.01l-0.032-0.007
		l-0.315,0.127l-0.046,0.012l-0.063-0.001l-0.251-0.049l-0.053-0.021l-0.036-0.061l0.07-0.139l0.048-0.067l0.123-0.104l0.161-0.111
		l0.055-0.071l0.083-0.192l-0.005-0.088l-0.037-0.106l-0.001-0.063l0.034-0.02l0.368-0.098l0.175-0.074l0.338-0.109l0.092,0.001
		l0.068,0.038l0.078,0.03l0.09,0.022l0.115-0.002l0.142-0.027l0.224,0.01l0.459,0.072l0.098,0.004l0.004-0.01l-0.071-0.05
		l-0.317-0.029l-0.133-0.029l-0.376-0.128l-0.085-0.049l0.034-0.023l0.092-0.019l0.032-0.019l0.013-0.032l0.053-0.044l0.092-0.055
		l0.141-0.054l0.267-0.08l-0.105-0.004l-0.191,0.015l-0.07,0.015l-0.129,0.058l-0.05,0.04l-0.071,0.079l-0.031,0.015l-0.133,0.011
		l-0.363,0.008l-0.061-0.04l-0.034-0.007l-0.045,0.006l-0.333,0.103l-0.12,0.052l-0.085,0.06l-0.132,0.044l-0.178,0.028
		l-0.134,0.034l-0.14,0.069l-0.048,0.053l-0.002,0.025l0.034,0.078l-0.035,0.015l-0.081,0.006l-0.13,0.052l-0.275,0.154
		l-0.036,0.056l0.002,0.019l0.045,0.044l-0.032,0.028l-0.077,0.045l-0.172,0.071l-0.113,0.027l-0.073,0.001l-0.071-0.01
		l-0.125-0.046l-0.102-0.003l-0.006,0.007l0.138,0.049l0.141,0.063l0.087,0.052l0.035,0.041l0.001,0.043l-0.031,0.044l-0.099,0.076
		l-0.098,0.023l-0.249,0.023l-0.08,0.018l-0.025,0.014l0.171,0.032l0.015,0.017l-0.023,0.064l-0.046,0.021l-0.142,0.038
		l-0.128,0.011l-0.019-0.007l0.023-0.05l-0.006-0.013l-0.048-0.01l-0.069,0.019l-0.17,0.074l-0.018,0.012l0.062,0.02l-0.013,0.017
		l-0.092,0.053l-0.039,0.035l-0.061,0.036l-0.274,0.111l0.021,0.027l-0.072,0.096l-0.039,0.084l0.048,0.036l0.23,0.042l0.112,0.01
		l0.132,0.029l0.238,0.079l0.079,0.051l0.012,0.025l-0.007,0.026l-0.029,0.036l-0.075,0.067l-0.179,0.1l-0.082,0.029l-0.123,0.022
		l-0.04,0.016l-0.158,0.095l-0.042,0.051l0.006,0.045l-0.03,0.031l-0.203,0.062l0.007,0.011l0.074,0.004l-0.027,0.054l-0.012,0.076
		l-0.035,0.012h-0.127l-0.162,0.029l-0.011,0.008l-0.003,0.054l-0.422,0.04l-0.092,0.103l-0.048,0.031l-0.166,0.075l-0.101,0.03
		L24.47,32.24l-0.06,0.025l-0.006,0.033l-0.033,0.028l-0.1,0.046l-0.049,0.059l-0.036,0.009L24,32.455l-0.037,0.018l-0.018,0.079
		l-0.035,0.003l-0.066-0.018l-0.086,0.014l-0.194,0.089l-0.042,0.032l0.004,0.017l0.03,0.017l0.046,0.053L23.6,32.795l-0.075,0.1
		l-0.026,0.015l-0.091,0.025l-0.037,0.055l-0.084-0.006l-0.067,0.01l-0.044,0.037l-0.048,0.021l-0.051,0.006l-0.065,0.029
		l-0.079,0.053l-0.072,0.033l-0.067,0.015l-0.065,0.004l-0.063-0.008L22.61,33.19l-0.051,0.02l-0.049,0.03l-0.039,0.087
		l-0.049,0.039l-0.032,0.006l-0.064-0.005l-0.097-0.019l-0.098,0.007l-0.159,0.053l-0.05,0.04l0.1,0.009l0.049,0.011L22.07,33.48
		l-0.052,0.01h-0.089l-0.053,0.009l-0.065,0.023l-0.163,0.024l-0.062,0.018l-0.123,0.101l-0.015,0.022l0.016,0.005l0.069-0.01
		l0.081,0.016l0.042,0.021l0.027,0.026l0.026,0.05l0.015,0.008l-0.156,0.085l-0.044,0.036l-0.029,0.013l-0.018-0.01l-0.02-0.095
		l-0.011-0.016l-0.037-0.002l-0.036,0.03l-0.078,0.112l-0.085,0.056l-0.639,0.144l-0.094,0.033l-0.018,0.062l-0.027,0.053
		l-0.042,0.042l-0.05,0.027l-0.01-0.019l0.005-0.15l-0.013-0.03l-0.065-0.019l-0.028,0.003l-0.039,0.008l-0.064,0.033l-0.04,0.008
		l-0.048-0.003l-0.084,0.032l-0.198,0.102l-0.129,0.026l-0.034,0.021l-0.056,0.056l-0.036,0.021l-0.055,0.002l-0.071-0.017
		l-0.058,0.012l-0.044,0.04l-0.044,0.016l-0.126-0.03l-0.055,0.021l-0.072,0.053L18.9,34.593l-0.078,0.017l-0.204,0.018
		l-0.082-0.012l-0.017-0.015l0.004-0.067l0.033-0.048l0.031-0.023l0.04-0.02l0.06-0.003l0.111,0.015l-0.013-0.016l-0.04-0.019
		l-0.102-0.033l-0.102-0.017l-0.058,0.011l-0.082,0.025l-0.055,0.03l-0.03,0.033l-0.036,0.109l-0.022,0.03L18.02,34.8l-0.094,0.06
		l-0.093-0.005l-0.044,0.023l-0.064,0.048l-0.058,0.023l-0.053-0.002l-0.042-0.009l-0.029-0.017l0.005-0.015l0.039-0.014
		l-0.014-0.038l-0.068-0.063l-0.047-0.035l-0.088-0.004l-0.014,0.029l0.03,0.147l-0.005,0.033l-0.055,0.041l-0.146,0.047
		l-0.045-0.005l-0.131-0.091l-0.124-0.019l-0.008,0.03l0.028,0.061l-0.031,0.057l-0.09,0.054l-0.068,0.025l-0.046-0.001
		l-0.003-0.037l0.042-0.073l0.01-0.061l-0.02-0.049l0.002-0.037l0.025-0.026l0.165-0.072l0.069-0.011l0.037,0.018l0.046,0.003
		l0.055-0.012l0.035-0.023l0.015-0.034l0.071-0.044l0.127-0.054l0.146-0.099l0.164-0.145l0.192-0.124l0.22-0.105l0.24-0.083
		l0.481-0.114l0.037,0.007l-0.044,0.037l0.03,0.023l0.048,0.003l0.176-0.019l0.07-0.024l0.021,0.024l-0.024,0.029l-0.106,0.029
		l0.003,0.025l0.154,0.115l0.048,0.018l0.04-0.003l0.017-0.014l-0.012-0.084l0.052-0.015l0.106-0.004l0.07,0.011l0.032,0.025
		l0.061,0.021l0.09,0.017l0.055-0.005l0.022-0.027l-0.039-0.032l-0.171-0.071l-0.047-0.03l-0.012-0.041l0.024-0.053l0.054-0.079
		l0.084-0.103l0.075-0.073l0.153-0.082l0.103-0.041l0.261-0.125l0.502-0.127l0.124-0.081l0.169-0.09l0.072-0.022v0.035l0.023,0.031
		l0.113,0.02l0.073,0.007l0.034-0.006l0.009-0.033l-0.015-0.06l-0.004-0.056l0.008-0.053l0.016-0.042l0.075-0.075l0.112-0.085
		l0.153-0.099l0.097-0.045l0.09-0.023l0.088-0.043l0.152-0.102l0.048-0.017l0.109-0.02l0.04,0.009l0.023,0.025l0.028,0.016
		l0.111,0.015l0.073-0.023l-0.012-0.012l-0.059-0.008l-0.039-0.015l-0.036-0.06l-0.073-0.037l-0.016-0.041l0.013-0.065l0.063-0.151
		l0.01-0.156l0.056-0.089l0.112-0.032l0.249-0.022l-0.145-0.041h-0.055l-0.094-0.019l-0.036-0.097v-0.07l0.063-0.082l0.232-0.138
		l0.254-0.095l-0.034-0.008l-0.031-0.029l0.117-0.191l0.114-0.17l-0.154,0.145l-0.179,0.111l-0.524,0.129l-0.356,0.109l-0.169,0.026
		l-0.112-0.028l-0.087-0.104l-0.049-0.037l-0.064-0.067l0.027-0.088L21.574,31l0.112-0.01l0.125,0.029l0.108,0.003l-0.14-0.06
		l-0.202-0.053l-0.091,0.017l-0.07,0.085l-0.094,0.059l-0.083-0.021l-0.048-0.024l0.033,0.071l-0.062,0.109l-0.023,0.075
		l0.089,0.199l-0.017,0.079l-0.162,0.036l-0.132-0.062l-0.275-0.251l-0.096-0.072l-0.216-0.118l-0.071,0.017l-0.091,0.058
		l-0.088,0.016l-0.233-0.086l-0.108-0.066l-0.102-0.079l-0.157,0.044l-0.137,0.052l-0.16,0.083h-0.107l-0.292,0.071l-0.031,0.002
		l-0.041,0.038l-0.04,0.017l-0.033,0.074l-0.394,0.058l-0.39-0.032l0.136-0.041l0.153-0.032l0.132-0.077l-0.057-0.103l-0.009-0.053
		l0.001-0.066l0.145-0.094l-0.15,0.001l-0.097,0.033l-0.09-0.07l-0.042-0.138l0.103-0.081l0.048-0.062l0.04-0.087l0.003-0.074
		l-0.08-0.125l-0.229-0.266l-0.104-0.198l-0.179-0.106l0.133-0.173l0.149-0.157l0.192-0.071l-0.015-0.01h-0.106l-0.07,0.009
		L17.8,29.369l-0.065,0.039l-0.204,0.2L17.4,29.706l-0.085,0.028l0.137,0.038l0.021,0.032l0.027,0.072l-0.036,0.089l-0.035,0.048
		l-0.162-0.004l-0.145,0.071l-0.341,0.077l-0.461,0.044l-0.227-0.005l-0.236-0.09l0.002-0.052l0.009-0.045l-0.338-0.155
		l-0.192-0.155L15.2,29.696l-0.12-0.041l-0.141-0.065l0.012-0.051l0.022-0.037l-0.086-0.025l-0.112,0.002l-0.129-0.017l0.338-0.199
		L15.1,29.13l0.095-0.019l0.123,0.02l0.169,0.053l0.143,0.023l0.051,0.025l0.053,0.046l-0.055,0.078l-0.051,0.055l0.062-0.015
		l0.178-0.084L16,29.237l0.064,0.008l0.041,0.013l0.074,0.077l0.091,0.078l0.201-0.075l0.108-0.092l-0.091-0.041l-0.111-0.024
		l-0.284-0.032l0.07-0.026l0.182,0.003l0.068-0.026l-0.072-0.035l-0.09-0.032l-0.246,0.104l-0.447-0.005l-0.312-0.061l-0.312,0.01
		l-0.049-0.012l-0.06-0.033L15,28.958l0.124-0.043l0.007-0.025l-0.072-0.003l-0.136,0.021l-0.061-0.036l0.01-0.062l-0.022,0.005
		l-0.054,0.034l-0.076-0.017l-0.065-0.028l0.034-0.03l0.067-0.041l-0.03-0.006l-0.06,0.009l-0.058,0.054l0.013,0.043l-0.002,0.063
		l-0.099,0.011L14.434,28.9l-0.062-0.063l-0.063-0.135l-0.173-0.036l-0.042-0.068l0.109-0.087l-0.048-0.045l-0.116-0.015
		l-0.133,0.044l-0.059-0.039l-0.011-0.043l-0.004-0.062l0.037-0.006l0.03,0.012l0.266-0.034l0.026-0.017l-0.211-0.052l-0.059-0.055
		l0.088-0.031l0.157-0.003l0.221-0.032l-0.093-0.058l-0.019-0.032l-0.019-0.053l0.037-0.088l0.259-0.204l0.253-0.17l0.079-0.039
		L15,27.468l0.108,0.016l0.113,0.037l0.021-0.016l-0.038-0.015l-0.048-0.069l0.156-0.027l0.092-0.079l0.007-0.022l-0.1,0.032
		l-0.104,0.054l-0.026-0.054l-0.026-0.124l0.045-0.117l0.036-0.053l0.087-0.049l0.249-0.02l0.044,0.01l0.009-0.024l-0.15-0.074
		l0.062-0.057l0.054-0.03l0.301-0.047l0.165,0.015l0.207,0.054l0.12,0.068l-0.018,0.035l-0.03,0.02l-0.062,0.022l-0.023,0.018
		l0.011,0.014l0.089-0.041l0.145-0.049l0.081,0.021l0.064,0.039h0.071l0.226-0.034l0.114-0.035l0.14-0.092l0.187-0.059l0.261-0.187
		l0.077-0.076l0.09-0.012l0.081,0.007l0.056,0.063l0.082,0.018l0.469-0.015l0.239-0.029l0.166-0.061l0.173-0.103l0.1-0.068
		l0.048-0.09l-0.061-0.116l-0.064-0.096l-0.084-0.22l-0.232-0.146l-0.166-0.043l-0.105,0.006l0.076-0.092l0.222,0.01l0.144-0.018
		l0.117-0.045l0.038-0.034l0.058-0.069l-0.02-0.074l-0.031-0.04l-0.08-0.044l-0.096-0.064l-0.067-0.021l-0.057,0.001l-0.279,0.129
		l-0.168,0.003l-0.125-0.024l-0.109,0.073l-0.304,0.065l-0.163,0.065l-0.301,0.162l-0.075,0.073l-0.096,0.004l-0.069-0.142
		l-0.328-0.136l-0.099,0.046l0.055,0.043l0.074,0.03l0.122,0.013l-0.053,0.041l-0.039,0.055l-0.123-0.051l-0.219-0.075l-0.227-0.038
		l-0.591,0.004l-0.388,0.077l-0.035-0.016l-0.038-0.007l-0.065,0.021l-0.027,0.031l-0.042,0.019l-0.08,0.007l-0.159-0.011
		l-0.308-0.048l-0.697-0.07l-0.182-0.043l-0.156-0.102l0.003-0.07l0.069-0.029l-0.006-0.1l-0.136-0.026l-0.276-0.143l-0.101-0.061
		l0.022-0.007l0.049,0.017l0.094,0.012l0.232-0.021l0.079-0.092l0.172-0.027l0.159,0.013l-0.036-0.025l-0.04-0.02l-0.412-0.047
		l-0.056,0.015l-0.739-0.084l-0.583-0.146l-0.048-0.028l-0.053-0.062l0.078-0.061l0.079-0.029l0.004,0.034l0.013,0.033l0.334-0.077
		l0.175-0.101l0.331-0.018l0.077-0.028l0.103-0.054l0.146-0.093l0.208-0.049l0.141-0.043l0.184-0.026l0.158,0.043l0.048,0.006
		l0.285,0.008l0.094-0.018l0.04-0.014l0.03-0.022l-0.28-0.078l0.028-0.043l0.036-0.031l0.327-0.091l0.251-0.03l0.134,0.002
		l0.39-0.117l0.214-0.033l0.402-0.023l0.33-0.005l0.09,0.041l-0.178-0.008l-0.078,0.007l0.056,0.014l0.063,0.031l-0.019,0.038
		l-0.109,0.115l0.009,0.091l-0.071,0.03l-0.069,0.041l0.339,0.132l0.524,0.009l0.285-0.024l0.164,0.039l0.135,0.009l0.373-0.021
		l0.28,0.028l0.118-0.011l0.259-0.197l0.102-0.03l0.11,0.034l0.144,0.028l0.092-0.021l0.075,0.051l-0.036-0.106l-0.05-0.039
		l-0.424-0.073l-0.284,0.036l-0.089-0.041l0.029-0.081l-0.303-0.2l-0.127-0.041l-0.149-0.002l-0.077-0.069l-0.063-0.089l0.129-0.037
		l0.116-0.016l0.108,0.028l0.123,0.118l0.113,0.017l-0.033,0.117l0.141,0.107l0.319,0.1l0.255-0.036l0.18,0.001l0.108,0.021
		l0.264,0.09l0.133,0.011l0.419-0.047l0.005-0.089l-0.036-0.063l-0.098-0.041l-0.283,0.008l-0.22-0.066l-0.187,0.018l-0.347,0.101
		l-0.174-0.04l-0.109-0.054l-0.176-0.054l-0.022-0.104l0.148-0.119l0.109-0.056l-0.098-0.042l-0.245-0.029l-0.427,0.03l-0.02-0.04
		l0.003-0.044l-0.174,0.086l-0.178-0.018l-0.241,0.009l-0.53-0.076l-0.189-0.093L16.2,22.731l-0.143-0.207l-0.182-0.129
		l-1.261-0.439l-0.574-0.11l-0.276-0.122l-0.173-0.03l-0.165-0.012l-0.212-0.04l0.142-0.048l0.098-0.016l-0.102,0.05l0.078,0.013
		l0.123-0.029l0.066-0.035l0.098-0.148l0.101-0.224l-0.027-0.088l0.7,0.017l0.465-0.014l0.154-0.02l0.588-0.034l0.152-0.025
		l0.282-0.076l0.332-0.133l0.285-0.175l0.046-0.048l0.018,0.013l0.026-0.008l0.03-0.066l0.037-0.157l0.142-0.147l0.602-0.336
		l0.279-0.133l0.093-0.061l0.097-0.044l0.068,0.042l0.033,0.013l0.019,0.019l-0.057,0.01l-0.094,0.043l-0.13,0.028l-0.032,0.015
		l0.077-0.003l0.229-0.032l0.129-0.038l0.643-0.07l0.348-0.116l0.014-0.025l0.517-0.145l0.071,0.005l0.083,0.018l-0.143,0.095
		l0.1,0.025l-0.089,0.115l0.187,0.002l0.042,0.052l0.011-0.045l-0.003-0.065l0.015-0.064l0.028-0.044l0.132,0.02l0.296-0.048
		l-0.359-0.005l-0.216-0.104l-0.12-0.001l0.401-0.152l0.366-0.092l0.083,0.002l0.04,0.017l0.009,0.028l-0.079,0.018l-0.078,0.033
		l0.036,0.028l0.053,0.005l0.176-0.024l0.079-0.03l0.375,0.003l0.11-0.021l0.027-0.021l0.486-0.004l0.089-0.015l0.303-0.081
		l0.281-0.099l0.13-0.053l0.222-0.137l0.19-0.089l0.313-0.089l0.075,0.011l-0.102,0.018l-0.07,0.037l0.097,0.05l0.659,0.104
		l0.165,0.005l0.067,0.062l-0.056,0.059l-0.169,0.067l-0.343,0.067l0.105,0.026L24.026,19.158z"/>
</g>
</svg>
